<?xml version="1.0" encoding="utf-8"?>
<!-- Generator: Adobe Illustrator 27.5.0, SVG Export Plug-In . SVG Version: 6.00 Build 0)  -->
<svg version="1.1" id="Layer_1" xmlns="http://www.w3.org/2000/svg" xmlns:xlink="http://www.w3.org/1999/xlink" x="0px" y="0px"
	 viewBox="0 0 1000 1000" style="enable-background:new 0 0 1000 1000;" xml:space="preserve">
<g>
	<path style="fill:#3C3C3C;" d="M794.107,601.341c0,0-2.282-18.044-5.979-24.889c-3.698-6.845-11.33-13.034-11.251-22.633
		c0,0,7.789,11.487,15.657,13.69c0,0-3.462-2.911-7.081-9.52c-3.619-6.609-4.327-14.319-9.756-20.928
		c1.652,2.046,10.7,4.563,13.533,3.226c-10.7-3.383-14.949-19.984-19.748-24.39c0,0,6.845,3.698,11.723,1.888
		c0,0-8.969-2.439-15.972-14.319c-7.002-11.88-12.038-11.015-18.253-21.243c0,0,8.025,7.946,12.274,7.081
		c-7.002-3.147-14.713-29.74-24.312-41.778c3.698,1.495,12.352,10.228,16.444,17.152c-1.798-9.708-9.84-18.175-15.071-23.576
		c0.752-0.278,1.511-0.551,2.255-0.834c0.985,0.469,1.906,0.857,2.587,1.042c-0.506-0.42-1.031-0.912-1.563-1.443
		c40.016-15.414,69.595-38.295,86.295-67.007c13.63-23.435,15.373-42.398,5.038-54.838c-13.72-16.516-47.191-20.042-94.249-9.929
		c-2.613,0.561-5.268,1.125-7.945,1.688c-0.94-71.004-33.381-137.693-51.072-158.16c-13.719-15.872-26.212-20.431-38.138-13.903
		c-1.345-0.917-2.693-1.821-4.043-2.72c-6.31-15.564-13.303-24.003-21.37-25.762c-4.8-1.046-9.7,0.384-14.58,4.191
		c-0.097-0.052-0.194-0.103-0.291-0.155c-0.041-0.066-0.08-0.133-0.122-0.199l-0.119,0.072
		c-20.229-10.751-37.852-17.686-47.584-18.251c-8.818-16.237-17.915-27.101-27.789-33.188c-8.549-5.271-16.017-6.003-22.813-6.01
		h-0.101c-6.796,0.007-14.263,0.739-22.813,6.01c-9.874,6.088-18.972,16.951-27.789,33.188c-9.819,0.571-27.665,7.622-48.116,18.534
		c-4.88-3.808-9.78-5.238-14.58-4.192c-8.067,1.759-15.059,10.198-21.369,25.762c-1.349,0.898-2.697,1.802-4.041,2.719
		c-12.062-6.648-24.224-2.195-38.14,13.904c-17.718,20.499-50.227,87.358-51.074,158.478c-3.194-0.67-6.361-1.339-9.465-2.006
		c-47.057-10.113-80.528-6.586-94.249,9.929c-10.335,12.441-8.593,31.404,5.037,54.839c16.209,27.868,44.545,50.247,82.786,65.633
		c-0.987,1.098-1.971,2.08-2.895,2.847c1.167-0.318,3.032-1.225,4.734-2.127c0.473,0.186,0.947,0.372,1.423,0.557
		c-5.071,5.27-14.428,14.367-16.386,24.937c4.091-6.924,12.746-15.657,16.444-17.152c-9.599,12.038-17.309,38.631-24.311,41.778
		c4.249,0.866,12.274-7.081,12.274-7.081c-6.216,10.228-11.251,9.363-18.253,21.243c-7.002,11.88-15.972,14.319-15.972,14.319
		c4.878,1.81,11.723-1.888,11.723-1.888c-4.799,4.406-9.048,21.007-19.748,24.39c2.832,1.337,11.88-1.18,13.533-3.226
		c-5.429,6.609-6.137,14.319-9.756,20.928c-3.619,6.609-7.081,9.52-7.081,9.52c7.868-2.203,15.657-13.69,15.657-13.69
		c0.079,9.599-7.553,15.788-11.251,22.633c-3.698,6.845-5.98,24.888-5.98,24.888c3.855-11.015,11.959-23.131,16.601-26.987
		c1.18,3.541-7.711,14.477-8.969,20.928c-1.259,6.452-0.866,26.2-0.866,26.2c2.675-21.007,9.546-25.859,18.516-36.402
		c-3.934,8.261-2.937,10.91-4.668,16.968c-1.731,6.058-5.743,12.195-8.261,12.982c3.068,1.18,7.789-1.574,9.048-3.226
		c0.944,3.541-10.622,21.007-4.013,30.999c0.079-7.238,7.317-14.083,14.319-18.175c-5.507,6.845-13.218,19.04-13.533,29.898
		c-0.315,10.857,6.609,23.525,6.609,23.525c-1.731-11.723,0.865-22.581,0.865-22.581c-0.315,8.104,7.396,17.939,7.396,17.939
		s-6.058,16.286,3.147,36.192c-1.273-2.969-1.469-20.089,1.731-25.492c-0.577,7.868,1.18,19.355,2.911,28.324
		c1.731,8.969,9.913,12.746,9.913,12.746c-5.429-5.98-3.777-13.769-3.777-13.769c4.406,5.193,8.104,11.723,8.104,18.411
		c0,6.688-3.383,12.431-6.53,14.713c4.799-0.236,11.88-4.013,13.69-10.071c-0.944,7.946,4.878,15.578,6.373,19.433
		c1.495,3.855,1.259,15.342,1.259,15.342c4.563-8.812,5.901-11.88,6.137-19.04c0.236-7.16,2.754-8.969,2.754-8.969
		c3.383,10.438-4.563,28.009,6.845,43.037c-4.563-19.512,3.855-15.106,1.967-27.459c2.99,5.507,0.787,19.669,3.855,28.009
		c3.069,8.34,9.835,14.949,9.835,14.949c-4.563-9.441-2.439-31.786,0.787-38.867c-1.101,10.149,0.315,22.738,3.698,29.268
		c3.383,6.53,3.226,19.433,3.226,19.433c3.934-6.609,4.642-23.603,4.642-23.603c1.967,10.149,3.462,34.382,9.599,37.766
		c-3.147-7.002-0.787-19.906-0.787-19.906c2.99,5.193,1.888,14.739,6.294,25.806c4.07,10.222,10.071,15.106,10.071,15.106
		c-5.271-9.992-1.888-20.299-1.888-20.299c3.304,6.845,3.304,13.218,10.071,22.423c6.766,9.205,12.589,10.543,12.589,10.543
		c-7.317-6.137-7.16-18.647-7.16-18.647c6.216,5.35,12.667,12.195,11.094,22.895c-1.574,10.7,0.629,18.017,4.721,22.895
		c-2.596-9.048,1.18-15.342,5.193-18.175c3.996-2.821,5.429-3.305,6.688-8.104c2.518,4.091,7.947,18.804,3.855,27.38
		c5.586-5.507,8.261-17.309,6.216-24.547c3.855,4.957,5.193,34.382,21.479,41.227c-5.429-6.294-7.71-17.309-3.54-29.504
		c5.193,4.327,6.609,15.264,6.53,18.096c3.383-4.013,1.18-17.073,1.18-17.073c3.383,5.429,7.632,20.378,5.98,32.022
		c4.249-5.035,4.485-18.332,2.046-24.626c5.586,4.091,5.743,15.342,10.149,24.626c4.406,9.284,10.7,15.421,16.286,15.578
		c-4.17-2.675-8.419-14.477-8.419-14.477c8.969,4.327,14.555,11.408,15.185,15.578c0.393-8.419-6.137-17.545-9.441-19.276
		c5.743,0.866,14.87,7.868,17.781,14.162c2.911,6.294,4.406,14.241,15.421,18.804c-6.294-5.744-5.979-12.195-5.035-21.007
		c9.205,9.127,18.909,15.788,18.909,29.006c0.88-3.168,3.825-10.478,2.546-19.124c-1.503-10.156-8.917-15.421-4.196-30.003
		c0.524,15.001,12.483,18.883,13.008,32.415c4.301-8.812,10.535-17.68,11.854-18.988c0.944,8.812,0.659,21.926-5.635,27.669
		c11.015-4.563,12.51-12.51,15.421-18.804c2.911-6.294,12.038-13.297,17.781-14.162c-3.305,1.731-9.835,10.858-9.441,19.276
		c0.629-4.17,6.216-11.251,15.185-15.578c0,0-4.249,11.802-8.419,14.477c5.586-0.157,11.88-6.294,16.286-15.578
		s4.563-20.535,10.149-24.626c-2.439,6.294-2.203,19.591,2.046,24.626c-1.652-11.644,2.596-26.593,5.979-32.022
		c0,0-2.203,13.061,1.18,17.073c-0.079-2.833,1.338-13.769,6.53-18.096c4.17,12.195,1.888,23.21-3.541,29.504
		c16.286-6.845,17.624-36.271,21.479-41.227c-2.046,7.238,0.629,19.04,6.216,24.547c-4.091-8.576,1.338-23.289,3.855-27.38
		c1.259,4.799,2.075,6.022,4.481,10.28c2.046,3.619,4.799,3.855,2.203,12.903c8.812-8.34,2.36-24.705,21.01-42.695
		c0,0,0.157,12.51-7.16,18.647c0,0,5.822-1.337,12.589-10.543c6.766-9.205,6.766-15.578,10.071-22.423
		c0,0,3.383,10.307-1.888,20.299c0,0,6.001-4.884,10.071-15.106c4.406-11.067,3.304-20.614,6.294-25.806
		c0,0,2.36,12.903-0.787,19.906c6.137-3.383,7.632-27.616,9.599-37.766c0,0,0.708,16.995,4.642,23.603
		c0,0-0.157-12.903,3.226-19.433c3.383-6.53,4.799-19.119,3.698-29.268c3.226,7.081,5.35,29.426,0.787,38.867
		c0,0,6.766-6.609,9.835-14.949c3.068-8.34,0.865-22.502,3.855-28.009c-1.888,12.352,6.53,7.946,1.967,27.459
		c11.408-15.028,3.462-32.599,6.845-43.037c0,0,2.518,1.81,2.754,8.969c0.236,7.16,1.573,10.228,6.137,19.04
		c0,0-0.236-11.487,1.259-15.342c1.495-3.855,7.317-11.487,6.373-19.433c1.81,6.058,8.891,9.835,13.69,10.071
		c-3.147-2.282-6.53-8.025-6.53-14.713c0-6.688,3.698-13.218,8.104-18.411c0,0,1.652,7.789-3.777,13.769
		c0,0,8.183-3.777,9.914-12.746c1.731-8.969,3.488-20.456,2.911-28.324c3.2,5.403,3.004,22.523,1.731,25.492
		c9.205-19.906,3.147-36.192,3.147-36.192s7.711-9.835,7.396-17.939c0,0,2.596,10.858,0.866,22.581c0,0,6.924-12.667,6.609-23.525
		c-0.315-10.858-8.025-23.053-13.533-29.898c7.002,4.091,14.241,10.936,14.319,18.175c6.609-9.992-4.957-27.459-4.013-30.999
		c1.259,1.652,5.979,4.406,9.048,3.226c-2.518-0.787-6.53-6.924-8.261-12.982c-1.731-6.058-0.734-8.707-4.668-16.968
		c8.969,10.543,15.84,15.395,18.516,36.402c0,0,0.393-19.748-0.865-26.2c-1.259-6.452-10.149-17.388-8.969-20.928
		C782.148,578.21,790.252,590.326,794.107,601.341z M514.181,370.001c-0.684-1.153-1.251-2.404-1.613-3.697
		c0.492-0.017,0.985-0.034,1.48-0.053C513.979,367.657,514.02,368.957,514.181,370.001z M580.65,729.533
		c1.967,6.085,0.63,18.122-7.71,24.81C576.795,747.577,581.044,734.385,580.65,729.533z M570.829,703.517
		c0.315,14.005-14.477,21.872-14.477,21.872c7.396-8.182,9.511-17.62,9.127-24.154c-0.472-8.025,6.452-20.22,12.903-21.872
		C573.111,684.556,570.514,689.513,570.829,703.517z M414.325,679.363c6.452,1.652,13.375,13.847,12.903,21.872
		c-0.384,6.535,1.731,15.972,9.127,24.154c0,0-14.791-7.868-14.477-21.872C422.193,689.513,419.596,684.556,414.325,679.363z
		 M475.667,372.755c-0.78-2.852-3.917-5.574-6.791-7.554c2.119,0.157,4.217,0.302,6.29,0.433
		C475.501,367.713,475.688,370.069,475.667,372.755z M467.695,377.737c-1.064-4.324-4.887-9.714-8.345-13.314
		c2.044,0.182,4.07,0.351,6.081,0.512C468.199,370.053,468.272,374.629,467.695,377.737z M172.635,320.538
		c7.649-9.207,23.009-13.903,44.119-13.903c13.12,0,28.462,1.814,45.551,5.486c74.382,15.985,175.884,33.122,237.701,33.282
		c61.806-0.16,163.308-17.297,237.688-33.282c44.584-9.58,77.268-6.513,89.669,8.416c9.184,11.055,7.306,28.471-5.43,50.368
		c-10.612,18.246-26.643,34.079-47.405,47.063c8.588-6.382,16.471-13.521,22.836-21.236c10.401-12.61,17.597-25.523,20.81-37.343
		c3.048-11.215,2.196-20.553-2.4-26.293c-8.865-11.073-30.514-12.59-74.724-5.234c-3.59,0.598-10.581,1.979-20.256,3.89
		c-46.374,9.161-154.974,30.616-220.155,30.632c-65.183-0.017-173.783-21.471-220.158-30.633c-9.675-1.911-16.665-3.292-20.255-3.89
		c-44.209-7.354-65.857-5.839-74.724,5.234c-4.595,5.74-5.447,15.078-2.399,26.293c3.213,11.82,10.409,24.733,20.81,37.343
		c7.973,9.666,18.335,18.42,29.475,25.923c-24.638-13.789-43.4-31.247-55.325-51.751
		C165.33,349.009,163.452,331.592,172.635,320.538z M327.37,154.199c14.486-16.76,24.023-16.846,30.83-13.698
		c-13.169,10.487-52.12,49.183-60.823,144.811c-0.255-2.693-0.455-5.388-0.558-8.08c-0.605-13.701,0.71-27.331,3.335-40.711
		c1.291-6.706,2.816-13.323,4.69-19.906c0.933-3.288,1.939-6.563,3.019-9.82c1.094-3.252,2.32-6.466,3.585-9.668
		c2.566-6.389,5.364-12.719,8.634-18.849c3.323-6.098,6.923-12.098,11.217-17.681c-4.668,5.335-8.709,11.138-12.474,17.077
		c-3.72,5.968-6.995,12.167-10.042,18.46c-1.507,3.154-2.973,6.328-4.318,9.547c-1.332,3.223-2.591,6.473-3.78,9.747
		c-2.386,6.539-4.434,13.221-6.246,19.894c-0.902,3.342-1.796,6.689-2.537,10.064l-1.145,5.056l-1.07,5.069
		c-1.365,6.768-2.661,13.549-3.684,20.369c-0.981,6.824-1.829,13.665-2.504,20.529c-0.323,3.433-0.539,6.879-0.738,10.329
		c-0.092,1.793-0.171,3.583-0.215,5.383c-1.768-0.362-3.536-0.723-5.281-1.085C277.829,240.598,309.915,174.394,327.37,154.199z
		 M388.445,113.262c3.029-0.659,6.257,0.192,9.622,2.534c-12.884,9.203-16.569,23.932-25.023,74.166
		c-7.504,44.587-9.455,85.72-9.753,112.758c-0.37-7.667-0.526-15.365-0.628-23.069c-0.24-17.731,0.274-35.474,1.32-53.219
		c1.005-17.75,2.736-35.474,5.315-53.1c0.624-4.411,1.424-8.794,2.252-13.173c0.842-4.377,1.767-8.741,2.834-13.076
		c1.05-4.339,2.33-8.63,3.866-12.841c0.767-2.106,1.623-4.185,2.625-6.205c0.997-2.018,2.125-4.004,3.654-5.737
		c-1.679,1.616-3.019,3.53-4.182,5.5c-1.169,1.975-2.194,4.02-3.131,6.094c-1.873,4.15-3.506,8.392-4.873,12.697
		c-1.392,4.299-2.642,8.632-3.809,12.982c-1.146,4.354-2.297,8.711-3.205,13.108c-3.769,17.565-6.722,35.262-8.788,53.046
		c-2.14,17.774-3.793,35.616-4.539,53.493c-0.212,4.468-0.381,8.939-0.51,13.412c-0.138,4.473-0.238,8.948-0.207,13.429
		c-0.004,4.479,0.066,8.964,0.198,13.458c0.055,1.849,0.138,3.694,0.248,5.545c-1.46-0.247-2.92-0.493-4.378-0.744
		c-4.68-37.844,8.698-152.377,22.652-187.3C375.659,122.875,382.034,114.66,388.445,113.262z M603.456,115.796
		c3.365-2.342,6.592-3.193,9.622-2.534c6.41,1.398,12.785,9.613,18.438,23.758c13.92,34.84,27.269,148.912,22.686,187.032
		c-1.464,0.253-2.931,0.501-4.397,0.75c0.101-1.763,0.18-3.522,0.233-5.284c0.133-4.494,0.203-8.979,0.198-13.458
		c0.031-4.481-0.068-8.956-0.206-13.429c-0.129-4.473-0.298-8.944-0.51-13.412c-0.746-17.876-2.399-35.719-4.539-53.493
		c-2.065-17.784-5.019-35.481-8.787-53.046c-0.908-4.397-2.059-8.754-3.205-13.108c-1.167-4.35-2.417-8.684-3.809-12.982
		c-1.367-4.304-3-8.547-4.873-12.697c-0.937-2.074-1.962-4.119-3.131-6.094c-1.164-1.97-2.504-3.884-4.183-5.5
		c1.529,1.732,2.657,3.719,3.654,5.737c1.002,2.02,1.858,4.1,2.625,6.205c1.536,4.212,2.816,8.502,3.866,12.841
		c1.067,4.335,1.992,8.699,2.834,13.076c0.828,4.379,1.629,8.762,2.252,13.173c2.58,17.626,4.31,35.35,5.315,53.1
		c1.047,17.745,1.56,35.489,1.32,53.219c-0.102,7.702-0.258,15.396-0.627,23.06c-0.298-27.038-2.25-68.167-9.753-112.748
		C620.025,139.727,616.341,124.999,603.456,115.796z M363.465,141.867c0.039-0.026,0.077-0.052,0.116-0.078
		c-0.106,0.325-0.211,0.663-0.316,0.996c-4.266,4.95-8.224,10.119-11.704,15.54c-3.576,5.579-6.66,11.429-8.899,17.52
		c2.934-5.834,6.637-11.271,10.766-16.374c2.344-2.893,4.841-5.669,7.437-8.359c-0.429,1.623-0.854,3.298-1.274,5.022
		c-2.803,4.552-5.068,9.337-6.68,14.218c1.501-2.23,3.132-4.355,4.872-6.379c-4.736,21.693-8.691,48.705-11.269,71.536
		c-2.14,18.95-3.92,40.377-4.443,58.769c-5.219-6.967-18.431-27.778-17.95-59.458c0.505-33.306,11.442-62.532,26.726-81.527
		C356.497,147.185,361.078,143.57,363.465,141.867z M420.8,114.666c0.205,2.673,0.557,5.305,0.96,7.918
		c0.404,2.612,0.866,5.204,1.305,7.794c0.435,2.59,0.861,5.177,1.095,7.794c0.14-2.623,0.085-5.259,0.022-7.886
		c-0.067-2.627-0.157-5.249-0.186-7.86c-0.029-2.61-0.002-5.21,0.168-7.776c0.172-2.563,0.49-5.098,1.086-7.502l-0.62-0.09
		c0.307-0.134,0.62-0.273,0.923-0.403c0.336,2.009,0.795,3.953,1.298,5.874c0.638,2.417,1.358,4.79,2.079,7.154
		c0.722,2.364,1.456,4.716,2.128,7.081c0.666,2.365,1.293,4.739,1.647,7.172c0.02-2.455-0.243-4.918-0.545-7.362
		c-0.309-2.446-0.68-4.881-1.034-7.31c-0.354-2.428-0.702-4.85-0.959-7.259c-0.254-2.402-0.433-4.803-0.373-7.112
		c0.184-0.074,0.371-0.151,0.553-0.223c1.832,4.098,3.843,8.001,5.735,11.969c1.018,2.126,2.013,4.258,2.923,6.421
		c0.899,2.165,1.747,4.351,2.245,6.64c-0.125-2.334-0.622-4.653-1.171-6.94c-0.56-2.289-1.211-4.557-1.883-6.814
		c-1.274-4.302-2.691-8.588-3.814-12.817c0.234-0.086,0.47-0.173,0.702-0.256c2.853,3.357,5.544,6.926,8.057,10.576
		c1.305,1.904,2.564,3.838,3.724,5.822c1.146,1.989,2.246,4.01,2.929,6.194c-0.316-2.258-1.086-4.459-1.904-6.613
		c-0.834-2.155-1.775-4.274-2.768-6.372c-1.782-3.738-3.718-7.401-5.881-11.016c0.237-0.075,0.483-0.158,0.715-0.229
		c1.762,1.176,3.475,2.565,5.109,4.034c1.722,1.55,3.379,3.188,4.974,4.883c1.592,1.697,3.127,3.45,4.56,5.274
		c1.417,1.831,2.802,3.702,3.74,5.802c-0.583-2.215-1.667-4.307-2.784-6.343c-1.136-2.037-2.386-4.019-3.712-5.964
		c-1.329-1.944-2.737-3.849-4.252-5.704c-0.915-1.115-1.874-2.208-2.9-3.274c0.239-0.056,0.484-0.117,0.716-0.168
		c1.864,0.758,3.706,1.76,5.482,2.87c2.022,1.269,3.977,2.68,5.865,4.177c1.884,1.502,3.696,3.095,5.426,4.766
		c1.706,1.687,3.425,3.396,4.704,5.404c-0.948-2.172-2.397-4.13-3.836-6.059c-1.467-1.919-3.035-3.778-4.704-5.57
		c-1.675-1.788-3.446-3.514-5.359-5.145c-0.427-0.362-0.864-0.717-1.306-1.069c10.04,3.163,22.124,15.969,24.822,22.973
		l-69.803,38.949c-0.599,0.335-0.994,0.908-1.069,1.55l-10.63,91.765c-3.619,2.035-6.048,5.699-6.048,9.886
		c0,6.387,5.635,11.583,12.56,11.583c0.555,0,1.097-0.045,1.633-0.109c3.653,6.762,8.091,15.62,12.495,26.016
		c0.996,2.35,1.884,4.551,2.72,6.672c-3.762,2.003-6.306,5.744-6.306,10.03c0,6.387,5.634,11.583,12.56,11.583
		c0.324,0,0.643-0.022,0.962-0.045c0.271,1.039,0.512,2.005,0.707,2.845c-13.334-1.649-29.236-7.953-39.357-26.322
		c-13.428-24.373-16.602-68.88-11.663-99.558c0.723-4.488,1.232-8.757,1.622-12.774c0.194-1.195,0.392-2.393,0.594-3.594
		c7.724-45.897,11.274-61.262,21.301-69.908c-2.075,4.143-3.8,8.418-5.129,12.78c-2.176,7.092-3.309,14.381-3.664,21.648
		c1.099-7.207,2.967-14.29,5.792-20.995c2.173-5.186,4.917-10.129,8.122-14.775c-1.424,3.75-2.529,7.582-3.324,11.442
		c-1.386,6.665-1.896,13.396-2.046,20.091c0.894-6.649,2.151-13.255,4.225-19.601c1.746-5.383,4.087-10.561,7.044-15.37
		c-1.133,4.028-1.829,8.119-2.231,12.19c-0.62,6.208-0.55,12.385-0.493,18.545c0.688-6.129,1.372-12.269,2.712-18.243
		c1.226-5.512,3.006-10.892,5.606-15.822c-0.713,4.289-0.84,8.574-0.761,12.797c0.109,5.725,0.716,11.366,0.987,17.032
		c0.476-5.659,0.619-11.351,1.254-16.948c0.625-5.582,1.657-11.133,3.78-16.161l-0.619-0.183c0.213-0.098,0.423-0.193,0.634-0.29
		C420.59,110.799,420.656,112.744,420.8,114.666z M500.761,59.849c7.506,0.705,11.33,2.581,15.167,30.58
		c2.182,15.922,3.258,24.401,3.777,28.723l-3.665-2.045l-4.344-13.529l0.942,11.631l-3.599-2.008L506.44,100.7l-0.188,10.945
		l-3.682-2.054l-1.258-11.768l-1.198,11.203c-0.177,0.049-0.351,0.113-0.513,0.204l-3.368,1.879l-0.179-10.408l-2.473,11.888
		l-3.68,2.054l0.896-11.064l-4.132,12.869l-4.849,2.705c0.52-4.322,1.595-12.801,3.777-28.724
		C489.431,62.429,493.255,60.553,500.761,59.849z M550.337,98.999c0.109,0.001,0.229,0.009,0.341,0.013
		c-0.5,0.395-0.989,0.797-1.47,1.203c-1.914,1.631-3.684,3.358-5.359,5.145c-1.67,1.792-3.237,3.651-4.704,5.57
		c-1.439,1.928-2.888,3.887-3.836,6.059c1.278-2.008,2.998-3.717,4.703-5.404c1.73-1.671,3.542-3.264,5.426-4.766
		c1.888-1.496,3.843-2.908,5.865-4.177c1.699-1.062,3.458-2.024,5.238-2.77c0.276,0.063,0.552,0.126,0.836,0.196
		c-0.979,1.026-1.899,2.076-2.777,3.147c-1.516,1.855-2.923,3.76-4.252,5.704c-1.326,1.945-2.577,3.927-3.712,5.964
		c-1.117,2.036-2.201,4.128-2.784,6.343c0.938-2.101,2.323-3.971,3.74-5.802c1.433-1.824,2.967-3.577,4.56-5.274
		c1.594-1.695,3.251-3.333,4.974-4.883c1.568-1.41,3.21-2.742,4.897-3.888c0.269,0.085,0.545,0.174,0.82,0.263
		c-2.12,3.557-4.021,7.16-5.774,10.836c-0.993,2.098-1.934,4.217-2.768,6.372c-0.818,2.154-1.587,4.355-1.904,6.613
		c0.683-2.183,1.784-4.205,2.929-6.194c1.16-1.984,2.419-3.918,3.724-5.822c2.467-3.582,5.107-7.085,7.902-10.388
		c0.265,0.097,0.527,0.191,0.796,0.291c-1.114,4.157-2.501,8.368-3.753,12.595c-0.672,2.257-1.323,4.525-1.883,6.814
		c-0.549,2.287-1.046,4.606-1.171,6.94c0.497-2.289,1.346-4.475,2.245-6.64c0.909-2.162,1.904-4.294,2.922-6.421
		c1.856-3.894,3.826-7.727,5.631-11.741c0.219,0.088,0.437,0.175,0.657,0.265c0.04,2.227-0.129,4.532-0.373,6.842
		c-0.257,2.408-0.605,4.831-0.959,7.259c-0.355,2.429-0.725,4.864-1.034,7.31c-0.302,2.444-0.565,4.907-0.545,7.362
		c0.354-2.433,0.981-4.806,1.647-7.172c0.672-2.364,1.406-4.717,2.128-7.081c0.721-2.365,1.441-4.738,2.079-7.154
		c0.481-1.834,0.925-3.687,1.257-5.6c0.154,0.067,0.309,0.135,0.464,0.203l-0.119,0.017c0.595,2.404,0.914,4.939,1.086,7.502
		c0.17,2.566,0.196,5.166,0.168,7.776c-0.029,2.61-0.119,5.232-0.186,7.86c-0.063,2.626-0.118,5.263,0.022,7.886
		c0.234-2.616,0.66-5.203,1.095-7.794c0.439-2.59,0.901-5.181,1.305-7.794c0.404-2.612,0.755-5.245,0.96-7.918
		c0.137-1.821,0.197-3.664,0.141-5.53c0.072,0.033,0.146,0.068,0.217,0.102l-0.209,0.062c2.123,5.027,3.155,10.578,3.78,16.161
		c0.635,5.596,0.778,11.288,1.254,16.948c0.271-5.666,0.878-11.307,0.987-17.032c0.08-4.223-0.048-8.508-0.761-12.797
		c2.6,4.93,4.38,10.309,5.606,15.822c1.34,5.975,2.024,12.114,2.712,18.243c0.057-6.159,0.126-12.337-0.493-18.545
		c-0.402-4.071-1.098-8.162-2.231-12.19c2.956,4.809,5.298,9.987,7.044,15.37c2.073,6.345,3.33,12.952,4.225,19.601
		c-0.15-6.696-0.659-13.427-2.046-20.091c-0.796-3.861-1.9-7.693-3.324-11.442c3.206,4.646,5.95,9.589,8.123,14.775
		c2.825,6.705,4.693,13.788,5.792,20.995c-0.355-7.267-1.488-14.556-3.664-21.648c-1.212-3.98-2.763-7.885-4.6-11.687
		c9.127,8.857,12.694,24.792,20.102,68.815c0.202,1.203,0.401,2.403,0.595,3.601c0.391,4.015,0.899,8.281,1.621,12.767
		c4.939,30.679,1.765,75.185-11.663,99.558c-10.121,18.37-26.023,24.673-39.357,26.322c0.195-0.84,0.436-1.806,0.707-2.845
		c0.318,0.022,0.637,0.045,0.962,0.045c6.926,0,12.56-5.196,12.56-11.583c0-4.286-2.544-8.027-6.306-10.03
		c0.836-2.122,1.724-4.322,2.72-6.672c4.402-10.39,8.841-19.25,12.496-26.016c0.535,0.064,1.077,0.109,1.631,0.109
		c6.926,0,12.56-5.196,12.56-11.583c0-4.187-2.429-7.85-6.048-9.886l-10.63-91.765c-0.074-0.642-0.47-1.216-1.07-1.55l-69.803-38.95
		C527.765,115,540.203,101.889,550.337,98.999z M416.536,318.461c0-4.106,3.622-7.446,8.074-7.446s8.074,3.341,8.074,7.446
		c0,4.106-3.622,7.446-8.074,7.446S416.536,322.567,416.536,318.461z M393.434,264.27c0-4.106,3.622-7.446,8.074-7.446
		c4.452,0,8.075,3.34,8.075,7.446c0,4.106-3.622,7.446-8.075,7.446C397.057,271.716,393.434,268.375,393.434,264.27z
		 M409.969,164.077l90.792-50.661l0.048,0.027v0.498h0.892l89.852,50.137l0.307,2.646l-91.099-45.918l-91.098,45.918
		L409.969,164.077z M608.088,264.27c0,4.106-3.622,7.446-8.075,7.446c-4.453,0-8.074-3.341-8.074-7.446
		c0-4.106,3.622-7.446,8.074-7.446C604.466,256.824,608.088,260.164,608.088,264.27z M576.911,325.908
		c-4.453,0-8.075-3.34-8.075-7.446c0-4.106,3.622-7.446,8.075-7.446c4.453,0,8.075,3.341,8.075,7.446
		C584.986,322.567,581.364,325.908,576.911,325.908z M448.325,225.855c0-26.688,23.545-48.4,52.484-48.4s52.484,21.712,52.484,48.4
		c0,26.688-23.545,48.4-52.484,48.4S448.325,252.543,448.325,225.855z M454.611,286.39l11.933-17.565
		c9.599,6.527,21.45,10.395,34.265,10.395c12.815,0,24.666-3.868,34.265-10.395l11.933,17.566l-46.198,20.132L454.611,286.39z
		 M568.78,260.363l-17.492-8.462c0.601-0.986,1.178-1.985,1.711-3.008l13.103,5.816l1.083,0.481l0.516-0.916l16.017-28.419
		l-17.477,26.388l-11.865-6.23c2.764-6.224,4.3-13.027,4.3-20.158c0-9.455-2.692-18.337-7.389-26.047l17.492-8.461l21.119,34.508
		L568.78,260.363z M535.074,182.886c-1.524-1.036-3.106-2.004-4.739-2.901l8.433-13.337l-11.171,11.929
		c-8.016-3.878-17.126-6.085-26.789-6.085c-9.905,0-19.235,2.31-27.396,6.372l-11.439-12.216l8.659,13.694
		c-1.404,0.795-2.767,1.645-4.089,2.544l-11.933-17.565l46.198-20.132l46.198,20.132L535.074,182.886z M442.942,225.855
		c0,6.985,1.478,13.654,4.136,19.773l-11.465,6.958l-17.442-25.804l16.114,27.788l0.524,0.904l1.043-0.533l12.584-6.423
		c0.588,1.152,1.222,2.278,1.895,3.383l-17.492,8.461l-21.119-34.508l21.119-34.508l17.492,8.461
		C445.633,207.518,442.942,216.4,442.942,225.855z M415.65,111.201l-0.013-0.005c0.005-0.002,0.01-0.005,0.015-0.007
		C415.651,111.192,415.65,111.197,415.65,111.201z M650.675,153.291c15.284,18.994,26.221,48.221,26.727,81.527
		c0.481,31.68-12.731,52.491-17.95,59.458c-0.523-18.391-2.303-39.818-4.443-58.769c-2.588-22.923-6.565-50.059-11.327-71.797
		c1.826,2.102,3.535,4.314,5.101,6.641c-1.671-5.056-4.026-10.013-6.971-14.711c-0.369-1.506-0.743-2.972-1.12-4.4
		c2.55,2.65,5.004,5.384,7.31,8.23c4.129,5.103,7.831,10.54,10.766,16.374c-2.239-6.091-5.323-11.941-8.899-17.52
		c-3.439-5.357-7.347-10.467-11.556-15.365c-0.123-0.392-0.247-0.789-0.371-1.171c0.044,0.03,0.087,0.059,0.131,0.089
		C640.463,143.585,645.036,147.196,650.675,153.291z M718.971,311.809c-0.045-1.695-0.121-3.382-0.208-5.072
		c-0.199-3.451-0.414-6.896-0.738-10.329c-0.675-6.864-1.522-13.704-2.504-20.529c-1.024-6.819-2.32-13.601-3.684-20.369
		l-1.07-5.069l-1.145-5.056c-0.74-3.374-1.635-6.722-2.537-10.064c-1.812-6.672-3.86-13.355-6.246-19.894
		c-1.189-3.274-2.449-6.524-3.781-9.747c-1.344-3.219-2.811-6.394-4.318-9.547c-3.047-6.293-6.322-12.492-10.042-18.46
		c-3.766-5.939-7.806-11.742-12.474-17.077c4.294,5.583,7.894,11.583,11.217,17.681c3.27,6.129,6.068,12.459,8.634,18.849
		c1.265,3.202,2.49,6.416,3.585,9.668c1.08,3.257,2.085,6.532,3.018,9.82c1.874,6.583,3.4,13.2,4.69,19.906
		c2.612,13.385,4.053,26.981,4.028,40.625c0.004,5.178-0.207,10.364-0.654,15.53c-7.319-101.009-47.917-141.422-61.42-152.175
		c6.807-3.149,16.344-3.062,30.83,13.698c17.429,20.163,49.444,86.198,50.102,156.519
		C722.505,311.082,720.742,311.445,718.971,311.809z M542.336,97.992c-1.043-1.799-2.117-3.569-3.242-5.297
		c-1.645-2.522-3.362-4.988-5.146-7.405c-1.788-2.415-3.648-4.78-5.611-7.07c-1.977-2.264-4-4.562-6.482-6.357
		c2.054,2.184,3.523,4.728,4.977,7.258c1.43,2.545,2.744,5.143,3.975,7.769c1.227,2.628,2.375,5.282,3.433,7.95
		c0.913,2.311,1.743,4.636,2.473,6.954c-5.122,3.955-9.851,8.937-12.961,13.527c-0.616-4.923-1.649-12.839-3.372-25.411
		c-2.096-15.288-4.185-23.915-7.862-28.708c9.235,2.686,21.173,10.706,34.345,34.58C545.378,96.366,543.86,97.112,542.336,97.992z
		 M489.005,61.201c-3.677,4.794-5.767,13.421-7.862,28.708c-1.723,12.573-2.755,20.489-3.372,25.412
		c-3.11-4.59-7.839-9.572-12.961-13.527c0.73-2.318,1.559-4.644,2.473-6.954c1.058-2.669,2.206-5.323,3.433-7.95
		c1.231-2.626,2.546-5.223,3.975-7.769c1.454-2.53,2.923-5.073,4.977-7.258c-2.482,1.795-4.505,4.092-6.482,6.357
		c-1.963,2.29-3.824,4.655-5.611,7.07c-1.784,2.417-3.501,4.882-5.146,7.405c-1.125,1.729-2.199,3.498-3.242,5.297
		c-1.524-0.88-3.042-1.627-4.526-2.211C467.832,71.908,479.77,63.887,489.005,61.201z M743.932,337.802
		c0.072,0.113,0.142,0.229,0.213,0.343C744.074,338.031,744.005,337.915,743.932,337.802z M744.702,339.065
		c0.08,0.138,0.156,0.279,0.234,0.419C744.858,339.344,744.781,339.203,744.702,339.065z M745.424,340.381
		c0.085,0.163,0.164,0.33,0.246,0.495C745.588,340.712,745.509,340.544,745.424,340.381z M746.093,341.751
		c0.087,0.19,0.167,0.385,0.25,0.578C746.26,342.136,746.18,341.941,746.093,341.751z M746.7,343.176
		c0.085,0.215,0.161,0.435,0.241,0.653C746.861,343.611,746.785,343.391,746.7,343.176z M747.238,344.655
		c0.079,0.238,0.148,0.483,0.221,0.725C747.386,345.138,747.317,344.894,747.238,344.655z M747.697,346.187
		c0.07,0.263,0.129,0.532,0.192,0.799C747.826,346.719,747.768,346.45,747.697,346.187z M748.071,347.77
		c0.059,0.289,0.103,0.585,0.153,0.878C748.175,348.355,748.13,348.059,748.071,347.77z M748.352,349.405
		c0.044,0.321,0.072,0.649,0.105,0.975C748.424,350.054,748.396,349.726,748.352,349.405z M748.53,351.09
		c0.028,0.376,0.036,0.761,0.047,1.144C748.566,351.85,748.558,351.466,748.53,351.09z M748.6,352.824
		c0.004,0.586-0.011,1.181-0.047,1.783C748.589,354.004,748.604,353.41,748.6,352.824z M742.428,335.635
		c-0.047-0.063-0.093-0.126-0.14-0.189C742.336,335.509,742.382,335.572,742.428,335.635z M743.309,336.865
		c-0.062-0.09-0.122-0.181-0.184-0.27C743.187,336.684,743.247,336.775,743.309,336.865z M571.366,409.261
		c6.452,1.18,11.33-3.619,16.601-3.619c5.271,0,11.33,0.865,15.106,6.908C593.527,421.311,577.581,417.539,571.366,409.261z
		 M591.121,488.287c-1.047-0.621-2.102-1.216-3.16-1.797c-4.441-2.419-8.977-4.527-13.58-6.418
		c3.976,2.981,7.803,6.139,11.374,9.483c1.777,1.674,3.509,3.383,5.066,5.171c0.659,0.753,1.29,1.521,1.886,2.293
		c11.609,16.207,9.978,32.538,7.727,54.946c-0.125,1.248-0.252,2.517-0.378,3.796c-1.491-1.327-3.07-2.501-4.606-3.57
		c-2.131-1.48-4.213-2.879-6.227-4.429c-2.015-1.54-3.96-3.193-5.872-4.905c1.435,2.123,2.933,4.223,4.549,6.253
		c1.606,2.033,3.361,3.983,5.027,5.892c1.669,1.916,3.159,3.787,4.32,5.827c0.985,1.693,1.809,3.494,2.559,5.354
		c9.225,25.742,8.915,33.585,0.727,42.211c-0.446-3.827-0.971-7.624-1.551-11.407c-0.677,3.773-1.409,7.532-2.218,11.252
		c-0.346,1.596-0.719,3.177-1.106,4.745l-0.022,0.019l-0.296,1.084c-1.753,6.412-3.81,12.397-6.11,17.787
		c-1.628,3.811-3.477,7.52-5.496,11.023c-3.524,6.119-7.601,11.582-12.115,16.241c-0.865,0.895-1.822,1.826-2.926,2.846
		c-5.429,5.024-11.653,9.262-18.494,12.591l-0.715,0.325c-3.553,1.689-7.285,3.166-11.182,4.413l-0.282,0.084
		c-2.782,0.88-5.632,1.652-8.468,2.294l-0.891,0.183c-2.469,0.539-5.07,1.016-7.733,1.419c-1.026,0.155-2.073,0.294-3.125,0.427
		c-6.417,0.816-13.198,1.229-20.158,1.229c-70.199,0-89.376-40.442-97.695-70.862l-0.296-1.084l-0.022-0.02
		c-0.388-1.568-0.761-3.148-1.106-4.744c-0.808-3.72-1.541-7.479-2.218-11.252c-0.581,3.783-1.105,7.58-1.551,11.407
		c-8.187-8.625-8.497-16.468,0.725-42.208c0.75-1.862,1.575-3.663,2.56-5.358c1.161-2.04,2.651-3.912,4.32-5.827
		c1.666-1.909,3.421-3.859,5.027-5.892c1.616-2.029,3.114-4.13,4.549-6.253c-1.912,1.712-3.856,3.366-5.872,4.905
		c-2.013,1.55-4.096,2.949-6.227,4.429c-1.536,1.069-3.115,2.242-4.606,3.57c-0.126-1.28-0.253-2.55-0.379-3.8
		c-2.251-22.412-3.883-38.747,7.739-54.958c0.593-0.766,1.22-1.529,1.874-2.277c1.557-1.788,3.289-3.497,5.066-5.171
		c3.57-3.344,7.398-6.502,11.374-9.483c-4.603,1.891-9.139,4-13.58,6.418c-1.058,0.58-2.112,1.176-3.16,1.797
		c1.139-14.967,12.125-31.011,28.524-41.533c1.801,20.261,16.324,25.324,36.944,33.213c13.847,5.298,19.591,15.604,28.009,15.106
		c0,0,0,0,0,0c0,0,0,0,0,0c8.418,0.498,14.162-9.809,28.009-15.106c20.62-7.889,35.143-12.952,36.944-33.213
		C578.997,457.275,589.983,473.319,591.121,488.287z M392.216,412.55c3.777-6.043,9.835-6.908,15.106-6.908
		c5.271,0,10.15,4.799,16.601,3.619C417.708,417.539,401.762,421.311,392.216,412.55z M554.817,446.817
		c-1.049-11.854-7.343-20.561-22.974-20.456c-15.631,0.105-27.904,10.438-27.695,21.715c0.162,8.706,10.071,12.169,10.071,12.169
		s-10.49-8.392-2.623-18.883c-0.839,9.756,2.623,14.896,9.336,17.204c6.714,2.308,13.638,1.574,17.729-4.511
		c-1.888,6.714-11.015,11.225-20.561,10.595c-9.546-0.629-18.672-6.713-20.456-11.539c-1.784,4.826-10.91,10.91-20.456,11.539
		c-9.546,0.629-18.673-3.882-20.561-10.595c4.091,6.084,11.015,6.819,17.729,4.511c6.714-2.308,10.176-7.448,9.336-17.204
		c7.868,10.49-2.623,18.883-2.623,18.883s9.909-3.463,10.071-12.169c0.21-11.277-12.064-21.61-27.695-21.715
		c-15.631-0.105-21.925,8.602-22.974,20.456c-5.126-19.431,7.658-30.122,23.603-30.107c12.805,0.012,22.764,8.392,33.569,8.392
		c10.805,0,20.764-8.381,33.569-8.392C547.159,416.695,559.943,427.386,554.817,446.817z M497.644,469.897L497.644,469.897
		L497.644,469.897L497.644,469.897L497.644,469.897c0.01,0.019,5.779,11.009,16.995,4.51c-5.665,5.14-11.015,9.651-16.994,9.651
		c0,0,0,0,0,0c0,0,0,0,0,0c-5.979,0-11.329-4.511-16.994-9.651C491.865,480.905,497.634,469.915,497.644,469.897z M497.645,417.444
		c-16.444,0.551-21.086-10.779-38.867-7.396c0,0,10.472-4.681,20.509-0.997c11.148,4.093,11.644,4.354,18.358,4.388
		c6.714-0.035,7.21-0.295,18.358-4.388c10.036-3.685,20.509,0.997,20.509,0.997C518.73,406.665,514.088,417.994,497.645,417.444z
		 M251.611,337.248c0.078-0.116,0.157-0.23,0.236-0.345C251.768,337.018,251.688,337.132,251.611,337.248z M252.501,335.975
		c0.067-0.092,0.135-0.182,0.203-0.274C252.637,335.793,252.569,335.883,252.501,335.975z M246.637,351.019
		c0.018-0.234,0.051-0.461,0.075-0.691C246.688,350.558,246.655,350.785,246.637,351.019z M246.83,349.285
		c0.035-0.24,0.083-0.473,0.124-0.71C246.913,348.812,246.865,349.045,246.83,349.285z M247.131,347.602
		c0.05-0.235,0.111-0.464,0.167-0.695C247.242,347.138,247.18,347.367,247.131,347.602z M247.531,345.969
		c0.063-0.225,0.135-0.445,0.203-0.667C247.666,345.524,247.594,345.743,247.531,345.969z M248.024,344.388
		c0.074-0.214,0.155-0.422,0.233-0.632C248.179,343.966,248.097,344.174,248.024,344.388z M248.601,342.857
		c0.081-0.198,0.169-0.391,0.254-0.585C248.77,342.466,248.682,342.659,248.601,342.857z M249.257,341.376
		c0.085-0.179,0.175-0.354,0.263-0.53C249.432,341.022,249.342,341.197,249.257,341.376z M249.981,339.949
		c0.086-0.16,0.176-0.315,0.264-0.473C250.157,339.633,250.067,339.789,249.981,339.949z M250.769,338.571
		c0.083-0.138,0.169-0.273,0.254-0.409C250.938,338.298,250.852,338.433,250.769,338.571z M246.561,352.802
		c0.002-0.199,0.018-0.392,0.024-0.59C246.578,352.41,246.562,352.603,246.561,352.802z M253.429,334.759
		c0.056-0.07,0.111-0.139,0.167-0.208C253.54,334.621,253.485,334.689,253.429,334.759z M256.372,331.44L256.372,331.44
		c-0.001,0-0.001,0.001-0.002,0.001C256.371,331.441,256.371,331.44,256.372,331.44z M255.436,332.422
		c-0.021,0.022-0.042,0.045-0.062,0.068C255.394,332.467,255.415,332.444,255.436,332.422z M254.509,333.458
		c-0.04,0.046-0.08,0.092-0.12,0.139C254.429,333.551,254.469,333.504,254.509,333.458z M481.158,365.98
		c0.523,0.027,1.039,0.049,1.558,0.075c-0.357,1.381-0.945,2.719-1.673,3.946C481.214,368.892,481.247,367.489,481.158,365.98z
		 M486,390.903c2.728-3.567,4.091-7.868,5.455-14.039c-0.839,20.474-4.668,23.743-7.763,22.012
		C480.973,397.355,483.273,394.47,486,390.903z M510.863,805.641c3.431-7.188,5.558-14.949,2.15-26.751
		c6.19,9.127,7.739,17.578,2.256,29.321c-5.392,11.548,4.249,24.18,4.249,24.18C505.985,823.737,507.558,812.565,510.863,805.641z
		 M511.532,398.876c-3.095,1.731-6.924-1.538-7.763-22.012c1.364,6.171,2.727,10.473,5.455,14.039
		C511.951,394.47,514.251,397.355,511.532,398.876z M519.997,365.986c1.878-0.096,3.783-0.207,5.705-0.327
		c-2.682,1.933-5.422,4.457-6.144,7.095C519.538,370.223,519.698,367.977,519.997,365.986z M529.541,365.407
		c1.918-0.133,3.854-0.277,5.808-0.431c-3.311,3.584-6.809,8.658-7.819,12.762C526.97,374.725,527.016,370.334,529.541,365.407z
		 M741.522,334.468c-0.032-0.039-0.063-0.079-0.095-0.118C741.458,334.389,741.49,334.429,741.522,334.468z M740.594,333.361
		c-0.015-0.017-0.03-0.035-0.046-0.053C740.563,333.326,740.579,333.344,740.594,333.361z M372.547,856.074
		c-0.236-8.655-4.721-19.433-9.599-26.042C374.199,837.27,376.166,845.295,372.547,856.074z M410.784,833.651
		c1.574,5.193-0.157,14.477-0.157,14.477c-3.934-11.33-15.421-23.761-15.421-23.761c7.868,16.522,3.147,34.933,3.147,34.933
		c-3.304-26.121-14.791-43.745-18.883-47.521c2.832,9.913-0.629,18.411-0.629,18.411c-2.203-15.578-11.015-17.152-13.847-27.695
		c1.416,10.543-2.36,17.309-2.36,17.309c-2.518-21.715-17.152-33.517-19.669-41.857c1.941,9.913,1.941,32.573,0.787,38.342
		c-2.203-14.372-7.474-39.365-12.274-45.03c-4.799-5.665-14.162-22.423-14.057-31.655c-6.504,17.204,9.327,33.747,4.406,49.41
		c-0.42-7.553-15.421-29.793-15.211-42.696c0.21-12.903-0.629-23.079-4.406-26.016c1.154,5.875-3.252,30.737-6.504,36.821
		c1.049-9.441-8.287-43.535-11.854-48.885c1.049,8.182-9.336,22.869-9.336,22.869s6.085-43.011-11.959-85.392
		c-4.301,8.078-5.77,48.466-2.098,56.963c-7.658-5.245-11.257-32.206-10.979-36.402c-2.239,3.567-4.442,18.883-4.442,18.883
		c-2.727-9.336-3.777-18.988-1.574-29.583c2.203-10.595-0.315-26.331-0.315-26.331c-0.105,11.015-8.287,22.554-6.399,32.835
		c-5.56-11.434-4.616-24.757-0.944-30.422c3.672-5.665,9.022-19.932,6.084-37.241c0.831,8.703-9.127,22.449-17.624,28.849
		c4.721-7.763,7.448-14.792,7.029-22.764c-0.42-7.973,4.406-17.099,4.406-17.099c-2.492,0.603-6.268,5.796-6.268,5.796
		c4.17-6.609,3.068-23.525,3.068-23.525c-0.787,4.878-10.622,14.398-10.622,14.398c4.642-6.609,2.596-13.454,7.553-20.535
		c4.957-7.081,13.454-23.367,13.454-23.367c-3.855,1.573-16.365,14.241-16.365,14.241c0.42-6.085,8.733-20.85,17.624-26.515
		s10.228-19.355,10.228-19.355c-4.091,11.802-21.951,16.444-26.987,22.502c3.855-8.34,18.332-23.603,19.04-24.784
		c-3.147,0.079-7.553,4.485-11.172,5.665c3.776-4.799,6.518-10.593,15.342-17.624c10.071-8.025,18.568-9.337,23.289-20.142
		c4.721-10.805,13.637-13.375,13.637-13.375c-15.001-0.525-15.879,15.882-31.891,20.142c3.567-3.462,13.323-14.162,15.526-18.988
		c-1.753,2.996-13.847,9.861-17.099,12.589c9.336-9.546,14.686-19.932,19.932-24.862c5.245-4.93,15.211-20.771,16.365-25.282
		c-2.359,5.258-14.057,14.162-21.191,16.365c6.085-13.323,10.595-19.197,17.099-25.911c6.504-6.714,14.687-19.197,14.687-19.197
		c-7.553,5.56-14.582,9.966-14.582,9.966s6.924-14.896,10.49-16.575c-4.616,0.839-14.057,13.008-16.785,16.889
		c3.776-9.127-1.259-21.086-1.259-21.086c1.565,4.932-4.616,19.932-4.616,19.932c-3.357-5.98-4.616-19.407-4.616-19.407
		c-2.098,7.238-1.993,22.03-1.993,22.03c-5.035-5.298-1.731-14.424-7.081-23.866c-5.35-9.441-7.71-14.477-3.934-23.131
		c3.777-8.655-1.259-12.431,3.934-19.669c1.064-1.484,2.184-2.79,3.334-3.989c2.09,0.394,4.616,0.884,7.544,1.459
		c-3.638,2.656-6.915,5.786-8.517,10.713c-3.147,9.677-1.888,16.208-3.147,21.794c4.277-6.416,6.136-25.136,27.41-29.401
		c0.741,0.146,1.49,0.293,2.253,0.443c-4.309,2.563-8.674,7.858-10.544,12.199c3.462-3.226,15.264-8.812,19.119-9.52
		c-6.216,5.586-7.238,14.792-7.238,14.792c2.182-3.819,9.896-10.105,15.301-14.233c1.122,0.216,2.26,0.434,3.41,0.654
		c-2.59,4.383-6.906,10.058-9.507,12.713c2.768-0.508,10.241-7.425,15.779-11.519c0.983,0.186,1.974,0.373,2.974,0.561
		c-2.715,3.385-7.473,8.013-12.616,11.351c-7.396,4.799-14.634,15.972-14.162,22.109c2.518-4.642,10.543-15.027,18.804-17.073
		c-3.619,4.406-5.271,8.969-1.731,15.814c-0.472-4.485-0.577-10.595,14.424-17.204c8.009-3.528,13.577-7.471,17.301-10.942
		c5.076,0.912,10.275,1.83,15.572,2.745c-1.454,1.311-2.463,2.484-2.922,3.372c2.317-1.385,4.618-2.22,6.657-2.731
		c1.41,0.241,2.827,0.481,4.248,0.721c-13.106,7.587-16.019,17.982-16.019,17.982c7.836-7.885,17.026-13.521,26.524-16.24
		c27.2,4.434,55.844,8.483,82.046,10.903c2.031,3.927,2.878,8.021,2.235,12.671c-1.102-5.316-8.078-10.823-8.078-10.823
		c3.567,6.294,1.311,16.522,1.311,16.522c-0.577-5.612-4.511-11.749-7.186-14.687c1.783,5.14-0.892,12.064-0.157,13.742
		c-3.567-5.193-6.661-12.798-7.763-17.886c-1.154,8.287-2.727,12.379-1.206,15.211c-4.563-1.102-13.021-14.11-13.021-14.11
		c-0.144,4.563,0,11.12,4.471,18.516c-6.399-2.937-14.162-17.047-22.135-20.456c3.92,2.46,6.766,12.798,6.766,12.798
		c-5.77-7.973-20.246-11.959-27.695-9.966c9.913,1.678,15.736,7.697,15.736,7.697c-10.386-3.934-16.759-5.94-29.583-0.511
		c10.071-1.574,27.8,0.21,37.923,11.644c-0.157-3.042-1.836-7.448-3.357-8.812c6.924,4.983,5.14,10.962,16.47,16.627
		c-3.305-3.672-3.986-9.284-3.986-9.284c6.819,9.756,17.939,15.631,17.939,15.631s-4.327-4.485-5.193-9.363
		c3.305,6.058,11.487,8.497,11.487,8.497c-2.832-4.091-1.81-9.756-0.157-12.195c-0.079,3.305,0.708,6.373,3.54,8.812
		c2.832,2.439,2.046,5.14,2.046,5.14c3.698-2.78,2.99-7.579,2.596-9.467c3.068,2.675,4.186,6.286,2.911,9.835
		c4.563-3.54,5.743-8.733,3.068-12.589c4.013,1.652,5.429,5.822,4.406,9.048c4.642-2.99,6.216-10.228,5.743-12.352
		c2.203,3.068,1.888,8.576,1.888,8.576c5.324-4.904,7.946-11.828,8.156-14.188c0.892,2.57-0.839,9.704-0.839,9.704
		s10.648-10.805,12.116-20.456c-1.783,14.686-14.057,35.248-36.9,35.248c-9.548,0-17.42-1.806-24.214-4.464
		c-1.546-0.871-3.252-1.831-5.238-2.88c-4.366-2.306-8.798-4.737-12.994-7.038c-9.481-6.236-17.391-12.056-27.325-11.707
		c-4.397-0.1-9.843,1.259-17.326,6.157c3.829-1.244,8.655-2.693,13.91-2.453c2.695,0.25,5.367,0.898,8.091,1.864
		c0.852,0.37,1.707,0.781,2.565,1.282c-0.028-0.002-0.059-0.003-0.087-0.005c-4.19-0.487-9.103,0.151-14.153,1.56
		c-8.581,2.147-18.343,6.507-25.894,13.692c-2.702,2.375-4.816,4.811-6.041,7.139c4.691-3.257,10.406-6.757,16.677-9.637
		c10.559-4.461,23.204-7.302,34.145-5.133c3.667,0.891,7.268,2.367,10.729,4.592c-0.082-0.02-0.169-0.039-0.253-0.058
		c-3.995-1.053-7.991-1.48-11.861-1.422c-9.266-0.104-19.874,2.109-28.357,9.202c-1.512,1.146-2.691,2.274-3.457,3.296
		c2.926-1.755,6.216-3.101,9.591-4.11c7.392-2.089,16.914-3.167,24.635-1.822c0.691,0.177,1.256,0.382,1.657,0.612
		c-0.004,0-0.008,0-0.011,0.001c-0.002,0-0.004,0-0.006,0c-10.66,0.457-25.936,5.126-29.507,7.733
		c-0.69,0.306-1.379,0.617-2.059,0.943c0,0,0.507-0.107,1.372-0.274l0,0h0c1.508-0.29,4.118-0.761,7.105-1.168
		c5.78-0.466,11.112,0,11.112,0c-1.458,0.174-2.544,0.568-3.345,1.066c-7.347,2.715-17.361,8.333-26.209,10.447
		c8.406,0.788,18.99-3.893,26.047-5.528c0.336,0.131,0.714,0.209,1.133,0.205c0,0-0.001,0-0.001,0
		c-5.235,1.866-15.975,6.791-20.57,11.301c7.029-5.035,25.177-7.238,32.73-6.399c0,0-13.533,5.035-22.24,11.539
		c2.203-1.469,17.309-5.875,25.387-7.133c0,0-10.7,7.343-21.925,11.644c-11.225,4.301-18.358,12.589-22.974,25.282
		c0,0,5.665-10.49,18.043-17.834c12.379-7.343,38.919-13.847,54.97-21.295c0,0-10.281,9.651-22.449,12.798
		c11.12,0.105,29.059-7.763,34.513-12.169c0,0-10.595,12.798-27.095,15.631c-16.5,2.832-19.692,3.567-32.333,25.02
		c15.421-17.834,31.104-19.512,37.293-19.565c-13.795,6.766-13.428,14.162-24.915,21.872c4.177,0.33,17.979-11.546,30.891-19.067
		c-15.038,12.717-24.199,29.96-23.569,45.775c-7.513,10.408-10.229,20.782-10.755,31.984c-7.256,6.419-14.386,22.464-11.517,36.508
		c2.832-10.543,8.36-17.467,10.553-18.096c0.147,11.33-4.731,24.199-4.731,24.199c6.294-5.001,6.714-7.047,6.714-7.047
		c0.459,1.266,1.077,2.02,1.518,3.038c0.016,0.187,0.035,0.365,0.051,0.553c-10.731,29.957-9.897,40.375,4.58,53.555
		c6.962,24.814,18.338,43.212,34.637,55.624c-13.704-5.678-24.079-14.719-30.635-34.827c1.508,4.26-1.496,9.966-1.496,9.966
		c-5.245-8.392-1.678-22.797-8.497-28.288c2.098,6.468-2.308,20.316-7.238,26.82c5.691-19.469-0.966-32.759-2.437-43.945
		c0.44,7.928-5.011,17.125-5.011,17.125c1.469-13.149-1.888-32.976-0.525-46.089c-2.937,3.881-5.035,14.267-5.035,14.267
		c-4.616-8.812-2.832-39.95-2.832-39.95c-10.176,15.298-22.554,55.371-15.106,69.323c0.839-14.582,8.707-30.422,8.707-30.422
		c-0.525,14.057,0.293,39.654-8.088,69.656c5.833-4.196,11.655-13.638,12.284-17.099c1.416,8.655-5.98,31.943-9.127,37.136
		c5.35-2.675,10.385-12.116,10.385-12.116c0.393,13.926,10.464,22.895,9.992,43.981c1.731-9.048,5.035-19.906,4.485-27.38
		c6.216,10.385,5.245,31.078,6.504,38.316c1.259,7.238,9.546,14.686,11.854,28.953c0-13.323,4.616-25.597,9.022-29.793
		c-2.728,10.7,0.839,36.192,12.693,49.095c-6.294-1.678-13.008-12.169-13.008-12.169c0.944,7.658,3.147,15.945,8.917,21.715
		c5.77,5.77,9.756,20.351,9.756,20.351s2.937-8.287,2.518-13.847c3.567,9.336,1.469,25.702,9.966,38.762
		c-11.487-5.35-11.959-16.208-17.939-24.81c-5.979-8.602-4.616-14.162-9.232-20.037c1.469,11.644-2.308,25.072-2.308,25.072
		c-0.734-16.68-4.721-18.253-5.35-26.855c-0.63-8.602-0.525-8.287-3.567-17.834c-1.154,6.085-2.937,23.708-1.154,29.478
		c-5.035-6.189-4.091-30.632-7.134-38.71c-3.042-8.078-8.497-16.68-9.651-24.967c-1.888,10.805,1.469,20.351,4.511,28.849
		s1.154,24.128,1.154,24.128s-4.511-14.477-4.511-20.666c-2.518,3.672-2.623,10.595-2.623,10.595
		c-3.462-8.707-1.888-28.954-4.826-38.5c-2.937-9.546-8.812-17.729-9.756-26.751c-1.574,5.35-2.832,22.869-0.944,33.15
		c-4.616-5.665-12.693-31.681-3.462-52.662c-5.979,5.56-15.211,23.708-16.575,36.507c-4.301-15.211,3.882-28.377,1.573-44.191
		c-0.315,5.901-8.392,16.496-8.392,16.496c0.629-15.736,8.287-28.639,5.77-43.85c0.445,4.078-5.77,12.693-5.77,12.693
		s-2.413-21.4-1.311-30.999s7.396-21.4,4.406-33.517c-0.997,12.483-13.69,31.996-13.795,40.388
		c-2.308-7.238-0.839-24.757,4.931-40.493c5.77-15.736,12.379-33.15,12.379-33.15s-18.778,30.632-19.512,34.513
		c-0.42-9.441,1.573-21.191,8.812-29.898c7.238-8.707,10.7-19.302,10.7-19.302c-6.819,9.022-12.589,11.33-12.589,11.33
		s3.252-13.113,12.379-22.554c9.127-9.441,11.959-21.872,11.959-21.872c-6.452,10.7-15.263,14.319-15.263,14.319
		c2.203-9.913,17.152-22.659,24.39-48.151c-5.035,7.396-18.568,21.4-28.009,26.908c-9.441,5.507-21.4,17.075-21.872,27.735
		c7.396-11.632,20.718-19.29,25.02-22.123c-3.042,7.868-11.015,12.064-15.316,22.869c-4.301,10.805-8.287,36.402-18.883,40.178
		c5.979,1.993,14.372-6.714,15.945-9.756c-0.944,7.448-8.602,15.421-11.12,23.603c-2.518,8.183-0.839,22.135-0.839,22.135
		c1.259-9.861,7.134-18.988,7.134-18.988s0.577,21.033-0.525,33.779c-1.102,12.746,3.462,12.431,4.091,20.771
		c0.629,8.34-0.944,19.04-0.629,22.502c-5.665-11.644-4.878-24.233-8.655-33.989c-3.777-9.756-8.025-26.278-8.025-26.278
		c2.99,21.558-4.091,34.146-2.832,46.577c-4.091-10.385-3.305-32.415-10.385-43.902c0.629,9.127-10.543,21.872-9.913,28.167
		c-4.878-15.578,2.31-32.823,9.599-45.004c11.487-19.197,6.137-43.116,9.127-52.557c-3.777,6.189-5.455,21.191-11.435,26.541
		c3.881-7.448,4.511-25.282,4.511-25.282c-3.777,13.008-12.903,23.997-14.372,28.534c1.25-11.005,6.924-26.541,6.924-26.541
		c-7.763,7.658-16.68,21.715-16.68,21.715c1.39-8.13,8.078-22.869,15.106-30.003c7.029-7.133,8.392-14.267,8.812-21.296
		c-3.462,9.546-13.533,21.61-23.918,25.597c7.658-7.029,24.338-23.813,25.806-62.628c-6.556,28.901-27.957,35.667-29.373,46.997
		c3.147-3.934,11.33-6.766,11.33-6.766c-2.203,8.969-29.74,30.685-21.715,58.064c1.259-8.655,5.98-19.04,11.644-22.03
		c-1.102,17.466-18.096,29.268-13.106,45.004c1.118-15.246,17.984-19.984,20.187-30.684c1.102,10.858-9.756,18.568-17.309,37.293
		c-7.553,18.725-0.315,39.654-0.315,39.654c-0.157-18.725,8.655-36.821,17.152-42.958c-7.081,13.69-2.518,39.654,10.7,61.684
		c1.731-9.441,8.812-16.837,8.655-21.086c2.832,7.553,1.102,22.502-1.888,35.405c-2.99,12.903-0.315,23.918,6.294,32.415
		c-3.619-10.071,0.472-28.639,0.472-28.639c5.035,8.655,1.416,30.212,23.603,35.09c-12.116-8.969-11.802-23.446-11.644-29.111
		c5.665,4.563,16.522,35.877,16.522,35.877c-0.157-9.441,11.487-20.299,11.487-20.299c-7.081,14.319-10.071,47.521,2.36,64.201
		c-2.99-8.812,1.102-18.096,3.777-23.604c-1.574,8.497,9.913,41.07,19.04,47.994c-4.406-7.711-5.98-23.289-3.305-28.954
		c0.315,7.238,8.025,33.045,16.365,38.71c-4.721-10.386-5.665-21.873-2.203-29.898c0.629,10.543,9.127,34.618,20.142,41.227
		c-3.777-6.766-0.315-26.121-0.315-26.121c2.203,12.903,10.7,24.39,14.162,38.71c-0.472-8.34,5.98-19.04,5.98-19.04
		c0.157,9.284,2.99,17.309,7.081,22.187c4.091,4.878,1.731,7.081,5.98,14.477c4.249,7.396,0.944,17.939,5.98,26.593
		C423.058,865.279,420.383,841.519,410.784,833.651z M402.392,701.629c-2.937-9.127,1.574-18.883-6.819-30.212
		c-8.392-11.33-7.133-17.519-6.294-27.38c-0.21,9.756,4.616,15.316,9.421,20.456c4.805,5.14,6.314,10.281,6,22.974
		c0,0,2.937-10.385,2.937-16.26c1.259,4.406,2.399,10.041,0.839,15.631C407.217,691.348,401.49,697.335,402.392,701.629z
		 M420.934,822.951c7.947,9.441,12.353,10.149,16.68,19.748c4.327,9.599,4.249,18.883,6.766,24.469
		C436.118,857.018,430.454,839.08,420.934,822.951z M443.934,785.657c-2.78,1.416-3.147-6.609-6.714-10.491
		c-3.466-3.771-1.888-14.477-0.105-16.26c-0.105,4.826-1.888,9.441,2.413,14.372C443.829,778.209,445.336,784.943,443.934,785.657z
		 M451.146,886.444c-2.046-3.777-1.967-7.16-0.944-11.251c0.315,3.147,1.495,8.34,6.845,12.195
		c5.35,3.855,6.058,12.903,6.058,12.903C459.171,892.423,453.192,890.22,451.146,886.444z M464.355,869.371
		c1.399-11.225,1.504-14.792-1.014-18.568c-2.518-3.777-1.154-9.127,1.783-11.539c-1.573,2.832-0.734,6.714,2.518,10.385
		C470.894,853.32,464.355,869.371,464.355,869.371z M468.691,788.909c1.259-6.714,0.486-8.529-5.389-15.271
		c-6.255-7.178-6.989-18.508-6.989-18.508c3.252,6.504,10.7,14.896,10.7,14.896c-2.832-7.868-0.315-21.925,3.042-26.96
		c-1.259,5.665-0.63,17.939,1.993,24.548C474.671,774.223,471.524,786.182,468.691,788.909z M492.295,878.812
		c3.042-8.078,2.022-20.876-6.542-27.695c-8.564-6.819-4.053-24.653,1.507-30.632c-2.728,12.589-1.993,18.673,4.196,27.065
		C497.645,855.943,497.54,875.875,492.295,878.812z M512.961,878.812c-6.085,7.448-7.029,18.463-7.029,18.463
		s-3.147-11.539,4.616-21.401c7.763-9.861,10.176-18.883,10.176-18.883C520.724,865.174,519.045,871.364,512.961,878.812z
		 M524.92,714.742c0,0-2.937,7.029-0.525,14.792c-7.029-10.176-7.343-18.988,2.728-30.632
		C524.5,701.839,522.507,712.015,524.92,714.742z M541.809,875.193c0.42,7.291,0.42,14.529-7.133,20.509
		c0,0,3.724-8.314,3.147-14.582c-0.424-4.607-1.888-10.805,7.133-18.883C544.956,862.237,541.39,867.902,541.809,875.193z
		 M544.956,839.263c2.518,9.336-12.169,20.876-12.169,20.876c3.567-6.399,8.279-12.766,7.029-21.61
		c-1.469-10.385,3.357-17.624,9.337-23.708C544.956,823.842,542.439,829.927,544.956,839.263z M543.488,790.273
		c1.573-0.839,5.455-7.763,4.406-16.05c-1.049-8.287-0.405-13.884,6.939-21.122c-4.578,7.957-4.108,20.49-2.849,23.952
		c0,0,5.247-11.222,11.751-10.488c-2.728,0.42-6.714,5.77-8.497,10.7C553.454,782.195,550.621,789.434,543.488,790.273z
		 M550.845,867.168c2.518-5.586,2.439-14.87,6.766-24.469c4.327-9.599,8.733-10.307,16.68-19.748
		C564.771,839.08,559.106,857.018,550.845,867.168z M622.678,856.074c-3.619-10.779-1.652-18.804,9.599-26.042
		C627.398,836.641,622.914,847.419,622.678,856.074z M762.725,565.673c0,0-1.102,16.916,3.069,23.525c0,0-3.777-5.193-6.268-5.796
		c0,0,4.826,9.127,4.406,17.099c-0.42,7.973,2.308,15.001,7.029,22.764c-8.497-6.399-18.455-20.146-17.624-28.849
		c-2.937,17.309,2.413,31.576,6.084,37.241c3.672,5.665,4.616,18.988-0.944,30.422c1.888-10.281-6.294-21.82-6.399-32.835
		c0,0-2.518,15.736-0.315,26.331c2.203,10.595,1.154,20.247-1.574,29.583c0,0-2.203-15.316-4.442-18.883
		c0.279,4.196-3.321,31.157-10.979,36.402c3.672-8.497,2.203-48.885-2.098-56.963c-18.044,42.381-11.959,85.392-11.959,85.392
		s-10.385-14.687-9.336-22.869c-3.567,5.35-12.903,39.444-11.854,48.885c-3.252-6.084-7.658-30.947-6.504-36.821
		c-3.776,2.937-4.616,13.113-4.406,26.016c0.21,12.903-14.792,35.143-15.211,42.696c-4.921-15.663,10.91-32.206,4.406-49.41
		c0.105,9.232-9.258,25.99-14.057,31.655c-4.799,5.665-10.071,30.658-12.274,45.03c-1.154-5.77-1.154-28.429,0.787-38.342
		c-2.518,8.34-17.152,20.142-19.669,41.857c0,0-3.777-6.766-2.36-17.309c-2.832,10.543-11.644,12.116-13.847,27.695
		c0,0-3.462-8.497-0.629-18.411c-4.091,3.776-15.578,21.4-18.883,47.521c0,0-4.721-18.411,3.147-34.933
		c0,0-11.487,12.431-15.421,23.761c0,0-1.731-9.284-0.157-14.477c-9.599,7.868-12.274,31.629-18.568,38.08
		c5.035-8.655,1.731-19.198,5.979-26.593c4.249-7.396,1.888-9.599,5.979-14.477c4.091-4.878,6.924-12.903,7.081-22.187
		c0,0,6.452,10.7,5.979,19.04c3.462-14.319,11.959-25.806,14.162-38.71c0,0,3.462,19.355-0.315,26.121
		c11.015-6.609,19.512-30.685,20.142-41.227c3.462,8.025,2.518,19.512-2.203,29.898c8.34-5.665,16.05-31.471,16.365-38.71
		c2.675,5.665,1.102,21.243-3.305,28.954c9.127-6.924,20.614-39.496,19.04-47.994c2.675,5.508,6.766,14.792,3.776,23.604
		c12.431-16.68,9.441-49.882,2.36-64.201c0,0,11.644,10.857,11.487,20.299c0,0,10.858-31.314,16.522-35.877
		c0.157,5.665,0.472,20.142-11.644,29.111c22.187-4.878,18.568-26.436,23.604-35.09c0,0,4.091,18.568,0.472,28.639
		c6.609-8.497,9.284-19.512,6.294-32.415c-2.99-12.903-4.721-27.852-1.888-35.405c-0.157,4.249,6.924,11.644,8.655,21.086
		c13.218-22.03,17.781-47.994,10.7-61.684c8.497,6.137,17.309,24.233,17.152,42.958c0,0,7.238-20.928-0.315-39.654
		c-7.553-18.725-18.411-26.436-17.309-37.293c2.203,10.7,19.069,15.439,20.187,30.684c4.99-15.736-12.004-27.537-13.106-45.004
		c5.665,2.99,10.385,13.375,11.644,22.03c8.025-27.38-19.512-49.095-21.715-58.064c0,0,8.182,2.832,11.33,6.766
		c-1.416-11.33-22.817-18.096-29.373-46.997c1.469,38.815,18.148,55.599,25.806,62.628c-10.385-3.986-20.456-16.05-23.918-25.597
		c0.419,7.029,1.783,14.162,8.812,21.296c7.029,7.133,13.716,21.872,15.106,30.003c0,0-8.917-14.057-16.68-21.715
		c0,0,5.673,15.536,6.924,26.541c-1.469-4.537-10.595-15.526-14.372-28.534c0,0,0.629,17.834,4.511,25.282
		c-5.98-5.35-7.658-20.352-11.435-26.541c2.99,9.441-2.36,33.359,9.127,52.557c7.289,12.181,14.477,29.426,9.599,45.004
		c0.63-6.294-10.543-19.04-9.913-28.167c-7.081,11.487-6.294,33.517-10.385,43.902c1.259-12.431-5.822-25.02-2.832-46.577
		c0,0-4.249,16.522-8.025,26.278c-3.776,9.756-2.99,22.345-8.655,33.989c0.315-3.462-1.259-14.162-0.629-22.502
		c0.629-8.34,5.193-8.025,4.091-20.771c-1.102-12.746-0.525-33.779-0.525-33.779s5.875,9.127,7.133,18.988
		c0,0,1.679-13.952-0.839-22.135c-2.518-8.182-10.176-16.155-11.12-23.603c1.573,3.042,9.966,11.749,15.945,9.756
		c-10.595-3.777-14.582-29.373-18.883-40.178c-4.301-10.805-12.274-15.001-15.316-22.869c4.301,2.832,17.624,10.49,25.02,22.123
		c-0.472-10.66-12.431-22.228-21.872-27.735c-9.441-5.508-22.974-19.512-28.009-26.908c7.238,25.492,22.187,38.238,24.39,48.151
		c0,0-8.812-3.619-15.264-14.319c0,0,2.832,12.431,11.959,21.872c9.127,9.441,12.379,22.554,12.379,22.554s-5.77-2.308-12.589-11.33
		c0,0,3.462,10.595,10.7,19.302c7.238,8.707,9.232,20.456,8.812,29.898c-0.734-3.882-19.512-34.513-19.512-34.513
		s6.609,17.414,12.379,33.15c5.77,15.736,7.238,33.255,4.93,40.493c-0.105-8.392-12.798-27.905-13.795-40.388
		c-2.99,12.116,3.305,23.918,4.406,33.517c1.102,9.599-1.311,30.999-1.311,30.999s-6.215-8.616-5.77-12.693
		c-2.518,15.211,5.14,28.114,5.77,43.85c0,0-8.078-10.595-8.392-16.496c-2.308,15.814,5.875,28.98,1.574,44.191
		c-1.364-12.798-10.595-30.947-16.575-36.507c9.232,20.981,1.154,46.997-3.462,52.662c1.888-10.281,0.629-27.799-0.944-33.15
		c-0.944,9.022-6.819,17.204-9.756,26.751c-2.937,9.546-1.364,29.793-4.826,38.5c0,0-0.105-6.924-2.623-10.595
		c0,6.189-4.511,20.666-4.511,20.666s-1.888-15.631,1.154-24.128c3.042-8.497,6.399-18.043,4.511-28.849
		c-1.154,8.287-6.609,16.889-9.651,24.967c-3.042,8.078-2.098,32.52-7.133,38.71c1.783-5.77,0-23.394-1.154-29.478
		c-3.042,9.546-2.937,9.232-3.567,17.834c-0.629,8.602-4.616,10.176-5.35,26.855c0,0-3.777-13.428-2.308-25.072
		c-4.616,5.875-3.252,11.435-9.232,20.037c-5.979,8.602-6.452,19.46-17.939,24.81c8.497-13.06,6.399-29.426,9.966-38.762
		c-0.42,5.56,2.518,13.847,2.518,13.847s3.986-14.582,9.756-20.351c5.77-5.77,7.973-14.057,8.917-21.715
		c0,0-6.714,10.491-13.008,12.169c11.854-12.903,15.421-38.395,12.693-49.095c4.406,4.196,9.022,16.47,9.022,29.793
		c2.308-14.267,10.595-21.715,11.854-28.953c1.259-7.238,0.289-27.931,6.504-38.316c-0.551,7.474,2.754,18.332,4.485,27.38
		c-0.472-21.086,9.599-30.055,9.992-43.981c0,0,5.035,9.441,10.385,12.116c-3.147-5.193-10.543-28.482-9.127-37.136
		c0.629,3.462,6.452,12.903,12.284,17.099c-8.382-30.003-7.564-55.599-8.088-69.656c0,0,7.868,15.841,8.707,30.422
		c7.448-13.952-4.93-54.026-15.106-69.323c0,0,1.783,31.138-2.832,39.95c0,0-2.098-10.385-5.035-14.267
		c1.364,13.113-1.993,32.94-0.524,46.089c0,0-5.452-9.197-5.011-17.125c-1.47,11.186-8.128,24.476-2.437,43.945
		c-4.93-6.504-9.336-20.351-7.238-26.82c-6.819,5.491-3.252,19.896-8.497,28.288c0,0-3.004-5.706-1.496-9.966
		c-6.593,20.219-17.044,29.251-30.861,34.923c2.235-1.68,4.384-3.458,6.424-5.346c1.205-1.116,2.259-2.143,3.221-3.136
		c4.946-5.104,9.397-11.068,13.234-17.723c2.169-3.763,4.153-7.742,5.897-11.83c2.306-5.402,4.373-11.346,6.152-17.685
		c14.478-13.18,15.311-23.598,4.579-53.555c0.022-0.249,0.046-0.485,0.068-0.733c0.433-0.93,1.005-1.668,1.436-2.858
		c0,0,0.42,2.046,6.714,7.047c0,0-4.878-12.869-4.731-24.199c2.193,0.629,7.721,7.553,10.553,18.096
		c2.86-14-4.217-29.991-11.449-36.45c-0.519-11.225-3.232-21.617-10.757-32.043c0.629-15.815-8.531-33.058-23.568-45.774
		c12.912,7.522,26.713,19.396,30.89,19.066c-11.487-7.71-11.12-15.106-24.915-21.872c6.189,0.052,21.872,1.731,37.293,19.565
		c-12.641-21.453-15.833-22.187-32.333-25.02s-27.095-15.631-27.095-15.631c5.455,4.406,23.394,12.274,34.513,12.169
		c-12.169-3.147-22.45-12.798-22.45-12.798c16.05,7.448,42.591,13.952,54.97,21.295c12.379,7.343,18.044,17.834,18.044,17.834
		c-4.616-12.693-11.749-20.981-22.974-25.282c-11.225-4.301-21.925-11.644-21.925-11.644c8.078,1.259,23.184,5.665,25.387,7.133
		c-8.707-6.504-22.24-11.539-22.24-11.539c7.553-0.839,25.702,1.364,32.73,6.399c-4.6-4.515-15.354-9.444-20.584-11.306
		c0.409-0.003,0.781-0.077,1.109-0.209c7.057,1.626,17.664,6.325,26.084,5.536c-8.911-2.129-19.005-7.813-26.366-10.505
		c-0.772-0.458-1.801-0.816-3.147-0.989c-0.024-0.006-0.051-0.015-0.075-0.021c0.239-0.021,5.539-0.461,11.252,0.018
		c2.772,0.38,5.207,0.813,6.726,1.101c0.068,0.018,0.14,0.033,0.207,0.052c-0.003-0.005-0.008-0.01-0.011-0.015
		c0.914,0.175,1.447,0.288,1.447,0.288c-0.734-0.352-1.476-0.689-2.222-1.018c-3.729-2.6-18.61-7.131-29.154-7.644
		c-0.089-0.005-0.183-0.012-0.268-0.017c0.382-0.218,0.906-0.414,1.55-0.585c7.156-1.284,15.906-0.465,23.067,1.325
		c0.068,0.018,0.136,0.037,0.205,0.055c0.265,0.067,0.516,0.141,0.776,0.211c3.617,1.029,7.157,2.44,10.282,4.316
		c-0.034-0.037-0.07-0.071-0.104-0.108c0.052,0.036,0.118,0.072,0.168,0.108c-0.881-1.175-2.301-2.49-4.156-3.812
		c-8.383-6.691-18.711-8.791-27.756-8.684c-3.702-0.048-7.518,0.345-11.336,1.308c-0.25,0.056-0.501,0.112-0.743,0.172
		c3.182-2.046,6.483-3.466,9.845-4.375c10.885-2.475,23.594,0.192,34.301,4.59c6.555,2.939,12.534,6.58,17.405,9.963
		c-0.025-0.038-0.053-0.074-0.079-0.112c0.046,0.037,0.098,0.075,0.143,0.112c-1.36-2.587-3.817-5.307-6.964-7.928
		c-7.282-6.586-16.421-10.682-24.564-12.786c-5.171-1.483-10.216-2.171-14.507-1.683c-0.067,0.005-0.139,0.007-0.205,0.012
		c0.773-0.452,1.544-0.829,2.312-1.173c2.848-1.034,5.634-1.721,8.447-1.977c5.215-0.216,10.002,1.221,13.806,2.456
		c-0.045-0.029-0.089-0.054-0.134-0.082c0.067,0.029,0.132,0.052,0.199,0.082c-7.502-4.91-12.957-6.264-17.36-6.156
		c-10.062-0.366-18.047,5.599-27.683,11.921c-4.081,2.238-8.371,4.588-12.602,6.823c-1.921,1.015-3.58,1.946-5.085,2.794
		c-6.844,2.705-14.781,4.55-24.431,4.55c-22.843,0-35.117-20.561-36.9-35.248c1.469,9.651,12.116,20.456,12.116,20.456
		s-1.731-7.134-0.839-9.704c0.21,2.36,2.832,9.284,8.156,14.188c0,0-0.315-5.507,1.888-8.576c-0.472,2.124,1.102,9.363,5.744,12.352
		c-1.023-3.226,0.393-7.396,4.406-9.048c-2.675,3.855-1.495,9.048,3.068,12.589c-1.275-3.548-0.157-7.16,2.911-9.835
		c-0.393,1.888-1.102,6.688,2.596,9.467c0,0-0.787-2.701,2.046-5.14c2.832-2.439,3.619-5.507,3.541-8.812
		c1.652,2.439,2.675,8.104-0.157,12.195c0,0,8.183-2.439,11.487-8.497c-0.865,4.878-5.193,9.363-5.193,9.363
		s11.12-5.875,17.939-15.631c0,0-0.682,5.612-3.986,9.284c11.33-5.665,9.546-11.644,16.47-16.627c-1.521,1.364-3.2,5.77-3.357,8.812
		c10.123-11.435,27.852-13.218,37.923-11.644c-12.825-5.429-19.198-3.422-29.583,0.511c0,0,5.822-6.019,15.736-7.697
		c-7.448-1.993-21.925,1.993-27.695,9.966c0,0,2.846-10.338,6.766-12.798c-7.973,3.409-15.736,17.519-22.135,20.456
		c4.472-7.396,4.616-13.952,4.472-18.516c0,0-8.458,13.008-13.021,14.11c1.521-2.832-0.052-6.924-1.206-15.211
		c-1.101,5.088-4.196,12.693-7.763,17.886c0.734-1.678-1.941-8.602-0.157-13.742c-2.675,2.937-6.609,9.074-7.186,14.687
		c0,0-2.255-10.228,1.311-16.522c0,0-6.976,5.507-8.078,10.823c-0.613-4.431,0.13-8.356,1.958-12.114
		c26.626-2.218,56.196-6.282,84.426-10.821c8.748,2.916,17.164,8.298,24.421,15.6c0,0-2.747-9.686-14.736-17.184
		c1.724-0.286,3.444-0.574,5.154-0.862c1.438,0.501,2.949,1.167,4.468,2.074c-0.354-0.684-1.036-1.539-1.994-2.495
		c5.306-0.902,10.53-1.812,15.64-2.718c3.7,3.242,8.984,6.814,16.304,10.038c15.001,6.609,14.896,12.72,14.424,17.204
		c3.541-6.845,1.888-11.408-1.731-15.814c8.261,2.046,16.286,12.431,18.804,17.073c0.472-6.137-6.766-17.309-14.162-22.109
		c-4.661-3.025-9.006-7.11-11.801-10.369c1.132-0.211,2.254-0.421,3.367-0.63c5.369,4.132,12,10.133,14.571,10.605
		c-2.401-2.451-6.259-7.473-8.876-11.679c1.347-0.255,2.674-0.508,3.988-0.759c5.287,4.096,12.07,9.761,14.094,13.303
		c0,0-1.013-9.049-7.092-14.648c0.086-0.017,0.173-0.033,0.259-0.05c4.2,0.974,15.36,6.301,18.714,9.426
		c-1.668-3.873-5.323-8.509-9.151-11.285c1.214-0.237,2.397-0.469,3.562-0.698c18.728,5.25,20.62,22.61,24.707,28.742
		c-1.259-5.586,0-12.116-3.147-21.794c-1.417-4.356-4.143-7.304-7.27-9.766c2.648-0.523,5.064-0.998,7.21-1.416
		c0.829,0.926,1.64,1.912,2.42,3c5.193,7.238,0.157,11.015,3.934,19.669c3.777,8.655,1.416,13.69-3.934,23.131
		c-5.35,9.441-2.046,18.568-7.081,23.866c0,0,0.105-14.792-1.993-22.03c0,0-1.259,13.428-4.616,19.407c0,0-6.181-15-4.616-19.932
		c0,0-5.035,11.959-1.259,21.086c-2.728-3.881-12.169-16.05-16.785-16.889c3.567,1.678,10.49,16.575,10.49,16.575
		s-7.029-4.406-14.582-9.966c0,0,8.182,12.484,14.687,19.197c6.504,6.714,11.015,12.589,17.099,25.911
		c-7.133-2.203-18.831-11.107-21.191-16.365c1.154,4.511,11.12,20.351,16.365,25.282c5.245,4.931,10.595,15.316,19.932,24.862
		c-3.252-2.728-15.347-9.593-17.099-12.589c2.203,4.826,14.582,19.827,18.148,23.289c-9.12-4.504-19.512-24.967-34.513-24.443
		c0,0,9.022,1.049,13.742,11.854c4.721,10.805,14.608,16.313,23.577,23.158c8.969,6.845,11.172,11.33,14.949,16.129
		c-3.619-1.18-8.025-5.586-11.172-5.665c0.708,1.18,15.185,16.444,19.04,24.784c-5.035-6.058-22.895-10.7-26.987-22.502
		c0,0,1.338,13.69,10.228,19.355c8.891,5.665,17.204,20.43,17.624,26.515c0,0-12.51-12.667-16.365-14.241
		c0,0,8.497,16.286,13.454,23.367c4.957,7.081,2.911,13.926,7.553,20.535C773.346,580.071,763.511,570.551,762.725,565.673z
		 M596.524,664.493c4.805-5.14,9.631-10.7,9.421-20.456c0.839,9.861,2.098,16.05-6.294,27.38
		c-8.392,11.33-3.882,21.086-6.819,30.212c0.902-4.294-4.826-10.281-6.084-14.792c-1.56-5.59-0.42-11.225,0.839-15.631
		c0,5.875,2.937,16.26,2.937,16.26C590.21,674.773,591.719,669.633,596.524,664.493z"/>
	<path style="fill:#3C3C3C;" d="M293.869,440.709c8.34-2.494,19.827-20.433,20.771-24.524c-0.157,10.228-9.599,21.715-13.061,26.593
		c-3.462,4.878-5.035,19.04-5.035,19.04c8.497-15.578,14.546-18.481,21.951-22.423c10.936-5.822,16.444-16.883,16.601-27.091
		c-3.226,11.035-16.208,18.909-16.208,18.909c6.452-11.802,2.596-18.01,8.655-31.936c6.058-13.926,15.578-21.644,15.578-21.644
		C316.213,388.018,299.376,437.224,293.869,440.709z"/>
	<path style="fill:#3C3C3C;" d="M361.453,373.777c-12.667,5.743-19.434,12.825-26.357,29.347
		C339.187,396.437,359.329,374.407,361.453,373.777z"/>
	<path style="fill:#3C3C3C;" d="M258.227,520.433c7.317-7.553,17.073-24.705,17.23-31.078c0,0-2.832,6.373-10.228,14.949
		c-7.396,8.576-17.073,25.256-12.51,31.156C252.72,535.461,250.91,527.987,258.227,520.433z"/>
	<path style="fill:#3C3C3C;" d="M335.568,447.656c-2.098,12.693-28.744,12.903-27.485,31.261c2.308-5.665,7.343-8.602,10.071-9.756
		c-1.154,5.665-7.842,11.094-7.842,17.912c0,6.819-1.81,21.164-6.635,25.334c12.693-8.419,8.707-19.014,18.28-36.192
		C329.818,462.109,336.092,462.028,335.568,447.656z"/>
	<path style="fill:#3C3C3C;" d="M325.707,503.78c2.937-5.14,10.595-10.071,15.945-14.424c5.35-4.353,17.624-14.634,18.568-27.118
		C358.647,472.833,331.162,487.52,325.707,503.78z"/>
	<path style="fill:#3C3C3C;" d="M363.184,518.23c-7.16,5.586-5.901,23.997-5.901,23.997c3.383-11.88,5.743-16.365,9.992-19.748
		c4.249-3.383,11.33-12.903,12.038-27.459C378.211,500.371,370.344,512.644,363.184,518.23z"/>
	<path style="fill:#3C3C3C;" d="M695.603,442.778c-3.462-4.878-12.903-16.365-13.061-26.593c0.944,4.091,12.431,22.03,20.771,24.524
		c-5.507-3.485-22.345-52.691-49.253-63.077c0,0,9.52,7.717,15.578,21.644c6.058,13.926,2.203,20.134,8.655,31.936
		c0,0-12.982-7.874-16.208-18.909c0.157,10.208,5.665,21.269,16.601,27.091c7.405,3.942,13.454,6.845,21.951,22.423
		C700.638,461.818,699.064,447.656,695.603,442.778z"/>
	<path style="fill:#3C3C3C;" d="M635.729,373.777c2.124,0.629,22.266,22.659,26.357,29.347
		C655.162,386.602,648.396,379.521,635.729,373.777z"/>
	<path style="fill:#3C3C3C;" d="M721.724,489.355c0.157,6.373,9.913,23.525,17.23,31.078c7.317,7.553,5.507,15.027,5.507,15.027
		c4.563-5.901-5.114-22.581-12.51-31.156C724.556,495.728,721.724,489.355,721.724,489.355z"/>
	<path style="fill:#3C3C3C;" d="M679.028,469.161c2.727,1.154,7.763,4.091,10.071,9.756c1.259-18.358-25.387-18.568-27.485-31.261
		c-0.524,14.372,5.75,14.453,13.611,28.56c9.573,17.178,5.586,27.773,18.28,36.192c-4.826-4.17-6.635-18.516-6.635-25.334
		C686.869,480.255,680.182,474.826,679.028,469.161z"/>
	<path style="fill:#3C3C3C;" d="M636.961,462.238c0.944,12.484,13.218,22.764,18.568,27.118c5.35,4.354,13.008,9.284,15.945,14.424
		C666.02,487.52,638.535,472.833,636.961,462.238z"/>
	<path style="fill:#3C3C3C;" d="M617.869,495.02c0.708,14.556,7.789,24.076,12.038,27.459c4.249,3.383,6.609,7.868,9.992,19.748
		c0,0,1.259-18.411-5.901-23.997C626.838,512.644,618.97,500.371,617.869,495.02z"/>
	<path style="fill:#3C3C3C;" d="M582.668,629.404c2.255-6.321,3.69-12.907,4.197-19.514c-1.237,6.515-3.365,12.787-6.231,18.668
		c-2.843,5.891-6.357,11.416-10.297,16.583c-2.962,3.892-6.172,7.583-9.567,11.083c1.229-1.862,2.426-3.743,3.554-5.663
		c3.107-5.327,5.665-10.958,7.715-16.722c2.007-5.797,3.157-11.828,3.699-17.835c-1.273,5.918-3.116,11.637-5.737,17
		c-2.667,5.332-5.766,10.406-9.349,15.124c-2.825,3.693-5.86,7.208-9.067,10.55c1.071-1.695,2.114-3.406,3.098-5.149
		c2.694-4.891,4.965-9.999,6.751-15.241c1.725-5.276,2.75-10.73,3.178-16.168c-1.158,5.349-2.878,10.495-5.221,15.344
		c-2.407,4.818-5.228,9.382-8.409,13.676c-2.69,3.55-5.589,6.921-8.648,10.134c0.938-1.571,1.851-3.156,2.703-4.774
		c2.307-4.435,4.267-9.038,5.794-13.757c1.442-4.757,2.341-9.637,2.655-14.508c-1.045,4.783-2.639,9.361-4.704,13.7
		c-2.153,4.304-4.673,8.379-7.483,12.233c-2.534,3.437-5.311,6.678-8.224,9.782c0.814-1.47,1.602-2.954,2.33-4.468
		c1.918-3.978,3.575-8.074,4.814-12.282c1.184-4.229,1.933-8.547,2.14-12.851c-0.938,4.218-2.384,8.241-4.197,12.065
		c-1.872,3.805-4.102,7.394-6.542,10.815c-2.383,3.346-5.037,6.489-7.807,9.513c0.696-1.405,1.368-2.822,1.994-4.258
		c1.518-3.524,2.871-7.115,3.805-10.818c0.934-3.698,1.517-7.463,1.62-11.203c-0.834,3.656-2.116,7.136-3.69,10.449
		c-1.575,3.316-3.52,6.431-5.585,9.429c-2.081,2.994-4.348,5.847-6.745,8.596c-0.18,0.205-0.37,0.404-0.551,0.609
		c0.561-1.336,1.106-2.678,1.606-4.036c2.267-6.096,3.819-12.557,3.839-18.931c-1.493,6.201-4.351,11.797-7.778,16.956
		c-1.709,2.585-3.555,5.07-5.496,7.489c-0.357,0.446-0.734,0.883-1.097,1.325c0.391-1.257,0.76-2.52,1.1-3.792
		c1.362-5.21,2.331-10.585,2.143-15.864c-1.28,5.113-3.598,9.756-6.207,14.163c-0.743,1.235-1.522,2.447-2.32,3.645l-2.802-21.217
		l-2.802,21.216c-0.798-1.198-1.577-2.41-2.32-3.644c-2.608-4.406-4.927-9.05-6.207-14.163c-0.188,5.279,0.781,10.654,2.143,15.864
		c0.341,1.271,0.709,2.534,1.1,3.792c-0.363-0.442-0.74-0.879-1.097-1.325c-1.941-2.419-3.787-4.904-5.496-7.489
		c-3.427-5.16-6.285-10.756-7.778-16.956c0.02,6.374,1.572,12.836,3.839,18.931c0.5,1.358,1.044,2.701,1.605,4.036
		c-0.181-0.204-0.371-0.404-0.551-0.609c-2.397-2.749-4.664-5.602-6.745-8.596c-2.066-2.998-4.01-6.113-5.586-9.429
		c-1.574-3.313-2.856-6.793-3.69-10.449c0.103,3.74,0.686,7.505,1.621,11.203c0.934,3.703,2.287,7.294,3.805,10.818
		c0.625,1.436,1.298,2.853,1.994,4.258c-2.771-3.024-5.425-6.167-7.807-9.513c-2.44-3.421-4.671-7.01-6.542-10.815
		c-1.814-3.823-3.26-7.847-4.197-12.065c0.207,4.304,0.955,8.622,2.139,12.851c1.239,4.207,2.896,8.304,4.814,12.282
		c0.728,1.514,1.517,2.998,2.33,4.468c-2.913-3.104-5.691-6.345-8.224-9.782c-2.81-3.855-5.33-7.929-7.483-12.233
		c-2.065-4.339-3.659-8.917-4.704-13.7c0.314,4.871,1.213,9.751,2.655,14.508c1.526,4.719,3.487,9.321,5.794,13.757
		c0.852,1.618,1.764,3.203,2.702,4.774c-3.058-3.213-5.958-6.584-8.648-10.134c-3.181-4.293-6.002-8.857-8.409-13.676
		c-2.343-4.849-4.063-9.995-5.221-15.344c0.428,5.438,1.453,10.892,3.178,16.168c1.786,5.243,4.057,10.35,6.751,15.241
		c0.983,1.743,2.027,3.454,3.097,5.149c-3.207-3.342-6.242-6.856-9.067-10.549c-3.583-4.718-6.682-9.792-9.349-15.124
		c-2.621-5.363-4.465-11.082-5.737-17c0.542,6.008,1.692,12.038,3.699,17.835c2.049,5.764,4.608,11.395,7.715,16.722
		c1.128,1.92,2.325,3.802,3.554,5.663c-3.395-3.5-6.605-7.192-9.567-11.083c-3.94-5.167-7.454-10.692-10.297-16.583
		c-2.866-5.881-4.994-12.153-6.231-18.668c0.507,6.607,1.941,13.193,4.197,19.514c1.274,3.617,2.814,7.143,4.529,10.589
		c4.462,7.688,9.747,14.1,15.922,19.336c15.337,13.004,36.459,19.326,64.572,19.326c6.694,0,13.209-0.397,19.364-1.179
		c1.003-0.128,1.999-0.259,2.977-0.407c2.534-0.383,5-0.835,7.332-1.344c0.203-0.044,0.414-0.087,0.625-0.128l0.221-0.044
		c2.671-0.605,5.35-1.331,7.956-2.156c0.143-0.045,0.291-0.089,0.44-0.132c3.504-1.129,6.943-2.491,10.223-4.049
		c0.188-0.089,0.38-0.176,0.573-0.262l0.129-0.058c6.248-3.041,11.961-6.928,16.934-11.531c1.015-0.939,1.892-1.792,2.682-2.608
		c4.104-4.237,7.823-9.222,11.063-14.81C579.868,636.516,581.4,633.005,582.668,629.404z"/>
	<path style="fill:#3C3C3C;" d="M583.351,598.823c25.072-2.203,10.7-22.974,4.721-27.275
		C593.632,579.73,596.988,591.06,583.351,598.823z"/>
	<path style="fill:#3C3C3C;" d="M501.84,500.318c-3.672,0.944,2.623,15.526,2.623,15.526S506.484,499.124,501.84,500.318z"/>
	<path style="fill:#3C3C3C;" d="M512.731,510.166c-0.531-0.747-1.96-15.171-5.743-13.277
		C503.691,498.539,510.488,508.789,512.731,510.166z"/>
	<path style="fill:#3C3C3C;" d="M520.999,504.488c-1.062-1.495-5.93-13.488-8.864-11.028
		C509.206,495.914,516.514,501.734,520.999,504.488z"/>
	<path style="fill:#3C3C3C;" d="M529.266,498.81c-1.593-2.242-9.822-11.706-11.985-8.779
		C514.801,493.385,522.539,494.679,529.266,498.81z"/>
	<path style="fill:#3C3C3C;" d="M537.534,493.132c-2.124-2.99-13.611-9.914-15.106-6.53
		C520.532,490.892,528.565,487.625,537.534,493.132z"/>
	<path style="fill:#3C3C3C;" d="M547.369,485.212c-4.642-0.393-14.009-3.572-15.054-1.678
		C529.841,488.018,543.645,486.287,547.369,485.212z"/>
	<path style="fill:#3C3C3C;" d="M552.523,477.528c-3.349,0.566-10.539,0.026-10.932,1.553
		C540.659,482.696,550.089,478.964,552.523,477.528z"/>
	<path style="fill:#3C3C3C;" d="M566.959,460.245c1.043,1.285,2.102,2.466,3.075,3.726c0.976,1.251,1.954,2.479,2.856,3.768
		c0.668,0.878,1.294,1.786,1.917,2.695c-0.31-0.139-0.618-0.281-0.931-0.415c-1.124-0.474-2.284-0.879-3.46-1.219
		c-1.181-0.329-2.389-0.585-3.613-0.687l3.047,1.942l2.957,1.961l2.919,1.978l2.858,2.003l5.586,3.914l-3.347-5.949
		c-0.841-1.495-1.73-2.84-2.721-4.167c-0.975-1.326-2.08-2.553-3.199-3.757C572.6,463.694,569.977,461.581,566.959,460.245z"/>
	<path style="fill:#3C3C3C;" d="M410.627,584.399c13.454-12.274,31.878-13.134,45.871-13.134c16.494,0,20.848-4.306,41.146-4.018
		c0,0,0,0,0,0c0,0,0,0,0,0c20.298-0.289,24.652,4.018,41.146,4.018c13.993,0,32.417,0.86,45.871,13.134
		c-11.172-18.83-40.755-17.991-56.806-19.879c-13.685-1.61-25.997-7.834-29.329-12.657c-0.217-0.314-0.55-0.472-0.883-0.472v0
		c0,0,0,0,0,0c0,0,0,0,0,0v0c-0.333,0-0.666,0.157-0.883,0.472c-3.332,4.823-15.644,11.047-29.329,12.657
		C451.382,566.408,421.799,565.568,410.627,584.399z"/>
	<path style="fill:#3C3C3C;" d="M411.938,598.823c-13.637-7.763-10.281-19.092-4.721-27.275
		C401.238,575.849,386.866,596.62,411.938,598.823z"/>
	<path style="fill:#3C3C3C;" d="M493.449,500.318c-4.644-1.194-2.623,15.526-2.623,15.526S497.12,501.262,493.449,500.318z"/>
	<path style="fill:#3C3C3C;" d="M488.302,496.889c-3.784-1.894-5.212,12.529-5.743,13.277
		C484.801,508.789,491.598,498.539,488.302,496.889z"/>
	<path style="fill:#3C3C3C;" d="M483.155,493.46c-2.934-2.46-7.802,9.533-8.864,11.028
		C478.775,501.734,486.083,495.914,483.155,493.46z"/>
	<path style="fill:#3C3C3C;" d="M466.023,498.81c6.727-4.131,14.465-5.424,11.985-8.779
		C475.844,487.104,467.616,496.568,466.023,498.81z"/>
	<path style="fill:#3C3C3C;" d="M457.755,493.132c8.969-5.508,17.002-2.24,15.106-6.53
		C471.366,483.219,459.879,490.142,457.755,493.132z"/>
	<path style="fill:#3C3C3C;" d="M462.974,483.533c-1.045-1.894-10.412,1.285-15.054,1.678
		C451.644,486.287,465.448,488.018,462.974,483.533z"/>
	<path style="fill:#3C3C3C;" d="M453.699,479.081c-0.393-1.527-7.584-0.986-10.932-1.553
		C445.2,478.964,454.63,482.696,453.699,479.081z"/>
	<path style="fill:#3C3C3C;" d="M538.159,579.456c-3.429-0.108-6.84-0.133-10.249-0.072c-3.47,0.042-6.967,0.306-10.423,0.777
		c-3.462,0.447-6.839,1.168-10.099,1.672c-3.265,0.532-6.473,0.803-9.744,0.834c-3.271-0.025-6.479-0.301-9.744-0.831
		c-3.261-0.5-6.639-1.216-10.1-1.666c-3.455-0.477-6.952-0.736-10.422-0.804c-3.409-0.057-6.819-0.068-10.25,0.037
		c-13.761,0.378-27.35,2.793-40.366,6.937c6.089-0.134,12.105-0.533,18.095-0.854c0.888,2.789,3.096,5.61,3.096,10.715
		c1.678-2.623,1.574-6.255,1.574-6.255c5.035,5.311,1.469,11.71,8.182,15.591c-2.203-4.616-1.469-7.973-1.154-12.693
		c6.819,3.672,12.903,9.949,13.742,15.465c2.649-6.129-3.645-12.738-2.413-19.976c1.783,6.399,3.567,14.372,14.477,17.729
		c-3.436-3.488-2.728-10.648-2.728-10.648c5.35,3.934,6.845,11.251,6.373,13.926c3.462-4.485,3.619-12.825,0.865-16.995
		c5.822,3.855,3.698,9.363,5.98,12.982c1.664,2.64,4.249,5.979,3.619,9.913c6.373-6.845-3.226-12.825,2.124-24.862
		c-0.787,5.507,9.048,19.145,9.048,19.145c-1.259-5.35,1.049-10.7,1.049-10.7c1.469,3.672,1.154,5.98,1.154,5.98
		s5.035-4.091,6.189-8.917c1.574,5.98-3.252,9.441-0.944,14.687c0.105-3.986,5.035-8.812,5.035-8.812
		c-0.629,4.301,3.147,7.343,6.609,9.022c-4.091-6.504-1.679-15.001-1.679-15.001s0.839,3.567,4.196,4.301
		c-0.944-3.672,3.252-6.609-1.049-13.742c4.511,2.098,6.609,10.49,4.616,20.771c4.511-4.511,4.721-12.589,4.721-12.589
		c2.308,4.301,0.629,11.12,0.629,11.12c4.196-4.931,4.721-9.441,3.567-15.106c3.462,4.196,0.944,8.707,3.882,11.539
		c-0.839-3.672,2.727-10.071,2.727-10.071c0.944,3.462,5.35,5.035,5.35,5.035s-2.832-3.776-2.832-7.448
		c2.518,3.357,9.651,3.672,9.651,3.672c-4.579-3.032-6.337-6.314-7.016-8.504c11.584,0.108,23.206,1.079,35.026,1.581
		C565.479,582.366,551.916,579.913,538.159,579.456z"/>
	<path style="fill:#3C3C3C;" d="M425.44,470.055l3.047-1.942c-1.225,0.102-2.432,0.358-3.613,0.687
		c-1.176,0.34-2.336,0.745-3.46,1.219c-0.312,0.134-0.621,0.277-0.931,0.415c0.623-0.909,1.249-1.817,1.917-2.695
		c0.902-1.289,1.88-2.517,2.856-3.768c0.973-1.26,2.032-2.441,3.075-3.726c-3.018,1.336-5.641,3.45-7.943,5.792
		c-1.119,1.205-2.224,2.431-3.199,3.757c-0.991,1.327-1.88,2.672-2.721,4.167l-3.347,5.949l5.586-3.914l2.858-2.003l2.919-1.978
		L425.44,470.055z"/>
	<path style="fill:#3C3C3C;" d="M413.774,568.951c5.039,2.604,7.632-17.939,20.142-30.055
		C425.497,543.459,409.053,566.512,413.774,568.951z"/>
	<path style="fill:#3C3C3C;" d="M407.111,562.773c5.039,2.604,9.522-17.939,22.032-30.055
		C420.724,537.281,402.39,560.333,407.111,562.773z"/>
	<path style="fill:#3C3C3C;" d="M421.959,522.479c-8.37,3.688-26.597,22.317-21.904,24.289
		C405.065,548.872,409.522,532.271,421.959,522.479z"/>
	<path style="fill:#3C3C3C;" d="M400.055,512.041c5.01,2.104,9.466-14.497,21.904-24.289
		C413.589,491.44,395.362,510.069,400.055,512.041z"/>
	<path style="fill:#3C3C3C;" d="M398.609,525.109c5.01,2.104,9.466-14.497,21.904-24.289
		C412.143,504.508,393.916,523.138,398.609,525.109z"/>
	<path style="fill:#3C3C3C;" d="M420.513,512.4c-8.37,3.688-26.597,22.317-21.904,24.288
		C403.619,538.793,408.076,522.192,420.513,512.4z"/>
	<path style="fill:#3C3C3C;" d="M423.773,566.87c3.886,2.069,6.059-13.675,15.692-22.976
		C432.959,547.324,420.072,564.804,423.773,566.87z"/>
	<path style="fill:#3C3C3C;" d="M433.821,564.776c3.034,1.684,4.921-10.5,12.426-17.715
		C441.152,549.642,430.864,562.96,433.821,564.776z"/>
	<path style="fill:#3C3C3C;" d="M453.063,550.095c-3.708,1.763-11.41,11.05-9.195,12.59
		C446.066,563.979,447.643,555.27,453.063,550.095z"/>
	<path style="fill:#3C3C3C;" d="M461.154,551.39c-2.82,1.193-8.952,7.739-7.185,9.188
		C455.627,561.651,457.085,555.229,461.154,551.39z"/>
	<path style="fill:#3C3C3C;" d="M469.344,552.569c-1.971,0.625-6.645,4.47-5.295,5.876
		C465.189,559.32,466.576,555.117,469.344,552.569z"/>
	<path style="fill:#3C3C3C;" d="M581.353,568.951c4.721-2.439-11.723-25.492-20.142-30.055
		C573.721,551.013,576.314,571.555,581.353,568.951z"/>
	<path style="fill:#3C3C3C;" d="M565.985,532.718c12.51,12.116,16.993,32.659,22.032,30.055
		C592.737,560.333,574.403,537.281,565.985,532.718z"/>
	<path style="fill:#3C3C3C;" d="M573.168,522.479c12.437,9.792,16.894,26.393,21.904,24.289
		C599.765,544.796,581.538,526.167,573.168,522.479z"/>
	<path style="fill:#3C3C3C;" d="M595.072,512.041c4.693-1.971-13.534-20.601-21.904-24.289
		C585.605,497.544,590.062,514.145,595.072,512.041z"/>
	<path style="fill:#3C3C3C;" d="M574.614,500.82c12.437,9.792,16.894,26.393,21.904,24.289
		C601.211,523.138,582.984,504.508,574.614,500.82z"/>
	<path style="fill:#3C3C3C;" d="M574.614,512.4c12.437,9.792,16.894,26.393,21.904,24.288
		C601.211,534.718,582.984,516.088,574.614,512.4z"/>
	<path style="fill:#3C3C3C;" d="M571.354,566.87c3.701-2.066-9.186-19.546-15.692-22.976
		C565.296,553.195,567.468,568.939,571.354,566.87z"/>
	<path style="fill:#3C3C3C;" d="M561.307,564.776c2.957-1.817-7.331-15.134-12.426-17.715
		C556.386,554.276,558.273,566.46,561.307,564.776z"/>
	<path style="fill:#3C3C3C;" d="M542.064,550.095c5.42,5.175,6.997,13.884,9.195,12.59
		C553.474,561.145,545.771,551.858,542.064,550.095z"/>
	<path style="fill:#3C3C3C;" d="M541.158,560.578c1.767-1.449-4.365-7.995-7.185-9.188
		C538.042,555.229,539.5,561.651,541.158,560.578z"/>
	<path style="fill:#3C3C3C;" d="M531.078,558.445c1.35-1.406-3.324-5.251-5.295-5.876
		C528.551,555.117,529.938,559.32,531.078,558.445z"/>
	<path style="fill:#3C3C3C;" d="M501.517,303.284l9.507-3.868c3.144-1.343,6.311-2.636,9.428-4.037
		c3.135-1.362,6.241-2.787,9.341-4.223c3.085-1.469,6.174-2.929,9.2-4.525c-3.338,0.926-6.613,1.988-9.892,3.042
		c-3.263,1.087-6.521,2.184-9.751,3.344c-3.247,1.121-6.444,2.351-9.664,3.53l-8.883,3.428l-9.048-3.437
		c-3.277-1.176-6.528-2.411-9.831-3.53c-3.285-1.159-6.598-2.257-9.917-3.342c-3.335-1.051-6.664-2.113-10.058-3.034
		c3.083,1.601,6.23,3.061,9.372,4.533c3.158,1.437,6.322,2.861,9.513,4.225c3.173,1.403,6.4,2.691,9.599,4.037l9.679,3.863
		l0.704,0.281L501.517,303.284z"/>
	<path style="fill:#3C3C3C;" d="M486.511,245.81c5.822-2.648,8.698-7.494,8.422-13.856c-0.052-1.199-0.247-2.278-0.54-3.272
		c3.612,5.58,5.578,5.999,4.308,13.098c5.064-2.51,8.096-6.659,8.996-12.033c4.034,7.992,6.813,7.367,5.054,14.344
		c5.972-2.348,9.133-7.04,9.237-13.407c0.182-11.168-12.017-13.053-9.836-23.243c-3.727,2.12-6.258,5.088-7.108,8.913
		c-3.989-5.951-10.481-9.179-9.222-17.888c-7.294,5.085-10.001,13.311-4.522,24.672c0.025,0.053,0.05,0.1,0.076,0.153
		c-3.664-4.383-8.69-7.24-7.652-14.044c-6.653,4.269-9.1,11.204-4.048,20.808C484.727,239.659,487.941,238.279,486.511,245.81z"/>
	<path style="fill:#3C3C3C;" d="M477.877,256.14h46.761c1.734,0,3.14-1.296,3.14-2.896c0-1.599-1.406-2.896-3.14-2.896h-46.761
		c-1.734,0-3.14,1.296-3.14,2.896C474.737,254.844,476.143,256.14,477.877,256.14z"/>
	<path style="fill:#3C3C3C;" d="M477.631,266.233c6.109,3.216,13.054,5.168,20.127,5.624l2.657,0.139
		c0.886,0.033,1.772-0.046,2.66-0.065l2.662-0.104c0.883-0.08,1.76-0.22,2.641-0.328c0.879-0.122,1.761-0.233,2.636-0.375
		l2.587-0.603c0.856-0.22,1.738-0.366,2.573-0.65l2.51-0.84c6.623-2.38,12.734-6.02,17.656-10.739
		c4.865-4.752,8.699-10.414,10.903-16.583l0.827-2.307l0.582-2.369c0.176-0.792,0.421-1.57,0.538-2.37l0.297-2.406l0.143-1.2
		l0.068-0.599l0.007-0.604l0.024-2.409c0.055-1.602-0.065-3.202-0.264-4.788c-0.839-6.339-3.176-12.465-6.918-17.667
		c2.688,5.716,4.209,11.781,4.295,17.837c0.052,6.048-1.097,12.041-3.523,17.541c-2.457,5.478-6.014,10.518-10.591,14.625
		c-4.539,4.131-10.015,7.361-15.964,9.402c-11.85,4.16-25.624,3.743-37.164-1.586c-0.362-0.161-0.737-0.303-1.09-0.481l-1.048-0.554
		l-2.102-1.11l-1.997-1.268l-1.006-0.63c-0.326-0.221-0.636-0.462-0.955-0.693l-1.909-1.399c-0.615-0.49-1.191-1.021-1.791-1.53
		c-1.239-0.989-2.258-2.168-3.384-3.27c-4.304-4.574-7.51-10.04-9.705-15.933c1.029,6.16,3.672,12.173,7.615,17.425
		C466.272,258.531,471.447,263.113,477.631,266.233z"/>
	<path style="fill:#3C3C3C;" d="M601.086,266.614c-3.206,0-5.805-2.383-5.838-5.339c-0.686,0.879-1.082,1.958-1.082,3.12
		c0,2.979,2.616,5.391,5.846,5.391s5.846-2.413,5.846-5.391v-0.06C604.8,265.713,603.056,266.614,601.086,266.614z"/>
	<path style="fill:#3C3C3C;" d="M577.983,320.806c-3.206,0-5.806-2.383-5.838-5.339c-0.686,0.879-1.082,1.958-1.082,3.12
		c0,2.978,2.616,5.391,5.846,5.391s5.846-2.413,5.846-5.391v-0.06C581.698,319.905,579.954,320.806,577.983,320.806z"/>
	<path style="fill:#3C3C3C;" d="M407.357,264.395c0-1.162-0.396-2.241-1.082-3.12c-0.032,2.956-2.632,5.339-5.838,5.339
		c-1.97,0-3.714-0.901-4.772-2.279v0.06c0,2.979,2.616,5.391,5.846,5.391C404.741,269.786,407.357,267.374,407.357,264.395z"/>
	<path style="fill:#3C3C3C;" d="M430.459,318.587c0-1.162-0.396-2.241-1.082-3.12c-0.032,2.956-2.632,5.339-5.838,5.339
		c-1.97,0-3.714-0.901-4.772-2.279v0.06c0,2.978,2.616,5.391,5.846,5.391C427.843,323.978,430.459,321.565,430.459,318.587z"/>
	<path style="fill:#3C3C3C;" d="M178.627,336.253c1.167-3.203,2.881-6.257,5.269-8.792c0.625-0.607,1.187-1.271,1.886-1.807
		l1.003-0.844c0.352-0.261,0.721-0.502,1.08-0.755c1.432-1.013,3.051-1.873,4.625-2.705c3.216-1.593,6.678-2.694,10.245-3.407
		c3.577-0.696,7.244-0.983,10.913-1.151c7.361-0.207,14.757,0.335,22.108,1.139c7.352,0.86,14.684,1.921,21.982,3.197
		c3.653,0.618,7.23,1.365,10.875,2.128l10.892,2.307c14.526,3.112,29.094,6.107,43.676,9.046
		c14.594,2.892,29.202,5.745,43.882,8.291c14.66,2.631,29.383,4.997,44.135,7.223c3.683,0.579,7.39,1.047,11.088,1.556
		c3.702,0.489,7.396,1.017,11.103,1.475l11.138,1.29l5.569,0.645l5.589,0.529l11.183,1.035c3.732,0.317,7.485,0.496,11.227,0.75
		l5.617,0.354c1.869,0.146,3.759,0.122,5.638,0.192l11.289,0.282l11.289-0.279c1.879-0.069,3.769-0.045,5.638-0.192l5.617-0.354
		c3.742-0.254,7.495-0.433,11.227-0.75l11.183-1.035l5.589-0.529l5.57-0.645l11.138-1.29c3.708-0.458,7.402-0.985,11.104-1.475
		c3.697-0.51,7.406-0.967,11.089-1.551c14.753-2.226,29.475-4.593,44.135-7.224c14.679-2.547,29.289-5.393,43.882-8.289
		c14.582-2.939,29.149-5.938,43.676-9.046l10.892-2.308c3.645-0.763,7.222-1.51,10.874-2.129c7.298-1.275,14.629-2.34,21.982-3.196
		c7.351-0.804,14.747-1.347,22.107-1.141c3.668,0.168,7.336,0.455,10.912,1.15c3.567,0.712,7.029,1.813,10.244,3.405
		c1.574,0.831,3.194,1.691,4.625,2.704c0.359,0.252,0.728,0.493,1.08,0.754l1.003,0.844c0.698,0.536,1.26,1.199,1.885,1.807
		c2.388,2.535,4.103,5.588,5.269,8.791c2.344,6.433,2.249,13.606-0.003,20.157c2.548-6.457,3.013-13.701,0.908-20.418
		c-1.072-3.339-2.751-6.561-5.165-9.301c-0.634-0.659-1.206-1.373-1.923-1.964l-1.033-0.924c-0.363-0.288-0.746-0.557-1.12-0.836
		c-1.494-1.123-3.087-2.029-4.714-2.953c-3.301-1.763-6.912-3.031-10.604-3.879c-3.703-0.833-7.474-1.239-11.243-1.521
		c-7.545-0.432-15.077-0.096-22.554,0.501c-7.468,0.678-14.896,1.621-22.282,2.744c-3.696,0.545-7.414,1.238-11.057,1.922
		l-10.965,2.082c-14.603,2.798-29.183,5.637-43.795,8.329c-29.233,5.32-58.506,10.433-87.93,14.518
		c-7.358,1-14.719,1.963-22.082,2.903l-11.061,1.247l-5.53,0.624l-5.539,0.507l-11.078,0.991c-3.693,0.303-7.391,0.466-11.086,0.707
		l-5.543,0.333c-1.849,0.14-3.692,0.108-5.538,0.171l-11.073,0.248l-11.073-0.245c-1.846-0.063-3.69-0.031-5.538-0.171l-5.543-0.333
		c-3.695-0.24-7.392-0.404-11.086-0.707l-11.078-0.991l-5.539-0.507l-5.53-0.624l-11.061-1.247
		c-3.684-0.444-7.361-0.958-11.042-1.433c-3.677-0.506-7.368-0.915-11.04-1.465c-29.424-4.09-58.699-9.195-87.931-14.517
		c-14.612-2.693-29.191-5.535-43.795-8.329l-10.965-2.082c-3.643-0.684-7.361-1.377-11.057-1.923
		c-7.386-1.123-14.814-2.07-22.282-2.743c-7.476-0.598-15.008-0.934-22.552-0.503c-3.768,0.281-7.539,0.687-11.242,1.52
		c-3.693,0.848-7.303,2.116-10.604,3.878c-1.628,0.924-3.221,1.83-4.714,2.953c-0.373,0.279-0.756,0.548-1.119,0.836l-1.033,0.924
		c-0.717,0.59-1.289,1.304-1.923,1.963c-2.414,2.74-4.094,5.961-5.164,9.3c-2.106,6.716-1.642,13.96,0.905,20.417
		C176.38,349.86,176.283,342.686,178.627,336.253z"/>
</g>
</svg>
